<?xml version="1.0" encoding="UTF-8" standalone="no"?>
<!-- Generator: Adobe Illustrator 18.0.0, SVG Export Plug-In . SVG Version: 6.00 Build 0)  -->

<svg
   xmlns:dc="http://purl.org/dc/elements/1.1/"
   xmlns:cc="http://creativecommons.org/ns#"
   xmlns:rdf="http://www.w3.org/1999/02/22-rdf-syntax-ns#"
   xmlns:svg="http://www.w3.org/2000/svg"
   xmlns="http://www.w3.org/2000/svg"
   xmlns:sodipodi="http://sodipodi.sourceforge.net/DTD/sodipodi-0.dtd"
   xmlns:inkscape="http://www.inkscape.org/namespaces/inkscape"
   version="1.1"
   id="Capa_1"
   x="0px"
   y="0px"
   viewBox="0 0 41.583 41.583"
   style="enable-background:new 0 0 41.583 41.583;"
   xml:space="preserve"
   sodipodi:docname="garden-sunflower.svg"
   inkscape:version="0.92.3 (2405546, 2018-03-11)"><metadata
   id="metadata131"><rdf:RDF><cc:Work
       rdf:about=""><dc:format>image/svg+xml</dc:format><dc:type
         rdf:resource="http://purl.org/dc/dcmitype/StillImage" /></cc:Work></rdf:RDF></metadata><defs
   id="defs129" /><sodipodi:namedview
   pagecolor="#ffffff"
   bordercolor="#666666"
   borderopacity="1"
   objecttolerance="10"
   gridtolerance="10"
   guidetolerance="10"
   inkscape:pageopacity="0"
   inkscape:pageshadow="2"
   inkscape:window-width="1920"
   inkscape:window-height="1017"
   id="namedview127"
   showgrid="false"
   inkscape:zoom="5.6753962"
   inkscape:cx="20.7915"
   inkscape:cy="20.7915"
   inkscape:window-x="0"
   inkscape:window-y="30"
   inkscape:window-maximized="1"
   inkscape:current-layer="Capa_1" />
<g
   id="g94"
   style="fill:#fff04a;fill-opacity:1">
	<path
   style="fill:#fff04a;fill-opacity:1"
   d="M38.491,15.597c0.026-0.021,0.057-0.041,0.082-0.062c1.05-0.922,1.435-2.389,1.012-3.718   c-0.383-1.206-1.377-2.109-2.655-2.231c-0.195-0.019-0.416-0.01-0.644,0.015c0.035-0.083,0.066-0.162,0.09-0.234   c0.387-1.146,0.314-2.49-0.429-3.479c-1.031-1.371-2.923-1.583-4.346-0.867c0.227-1.494-0.259-3.069-1.753-3.774   c-1.375-0.649-3.249-0.115-4.125,1.098c-0.634-1.773-2.654-2.975-4.593-1.991c-0.548,0.278-1.062,0.742-1.427,1.294   c-0.916-0.973-2.632-1.409-3.799-1.044c-1.955,0.612-2.931,2.953-2.039,4.745c-0.153,0.083-0.306,0.164-0.458,0.254   c0.03-0.108,0.035-0.224-0.03-0.342c-0.539-0.984-2.111-1.367-3.152-1.354c-1.05,0.013-2.163,0.411-2.806,1.277   C6.367,6.602,6.687,9.032,8.532,9.571c0.077,0.022,0.146,0.011,0.203-0.021c-0.104,0.118-0.21,0.235-0.312,0.354   c-1.715-1.334-4.759-1.011-5.88,0.93c-0.78,1.353-0.491,3.216,0.656,4.191c-1.606,0.746-2.808,2.452-2.739,4.236   c0.06,1.535,1.052,2.806,2.369,3.298c-0.244,0.232-0.454,0.487-0.612,0.723c-0.572,0.857-0.801,1.97-0.434,2.953   c0.387,1.035,1.396,1.707,2.436,1.805c-0.199,0.255-0.366,0.52-0.478,0.764c-0.507,1.106-0.539,2.502,0.204,3.512   c1.009,1.37,2.993,1.639,4.413,0.881c-0.125,0.981,0.154,2.02,0.927,2.674c0.846,0.717,2.095,0.693,2.999,0.159   c0.054,1.061,0.542,2.121,1.447,2.708c1.148,0.744,2.546,0.504,3.511-0.27c0.001,0.463,0.078,0.923,0.262,1.36   c0.437,1.036,1.388,1.789,2.542,1.753c1.05-0.033,2.028-0.764,2.452-1.702c0.106-0.233,0.17-0.466,0.217-0.698   c0.757,0.496,1.696,0.663,2.613,0.444c0.986-0.236,1.829-0.934,2.117-1.898c0.783,0.461,1.693,0.638,2.546,0.329   c1.934-0.7,2.354-2.566,1.944-4.296c1.225,0.302,2.616,0.086,3.597-0.734c1.302-1.09,1.526-2.918,0.905-4.383   c1.007-0.057,1.997-0.464,2.619-1.279c1.184-1.553,0.555-3.703-0.871-4.781c1.218-0.428,2.357-1.384,2.721-2.352   C41.668,18.207,40.332,16.216,38.491,15.597z M36.545,10.626c0.952,0.071,1.691,0.717,1.926,1.641   c0.237,0.932-0.095,1.884-0.877,2.449c-0.399,0.288-0.787,0.378-1.189,0.417c-0.345-1.34-0.857-2.621-1.529-3.8   c0.231-0.107,0.446-0.292,0.641-0.508C35.82,10.689,36.139,10.595,36.545,10.626z M31.233,6.27   c1.212-0.912,3.242-0.937,4.033,0.499c0.422,0.766,0.367,1.735-0.046,2.492c-0.243,0.445-0.666,0.691-1.008,0.999   c-0.901-1.318-2-2.487-3.261-3.447C31.06,6.643,31.147,6.456,31.233,6.27z M25.865,4.093c0.051-0.044,0.095-0.1,0.115-0.18   c0.491-1.964,3.35-2.516,4.212-0.51c0.369,0.859,0.23,1.918-0.274,2.694c-1.251-0.788-2.624-1.395-4.1-1.749   C25.84,4.263,25.849,4.178,25.865,4.093z M20.5,2.437c0.188-0.349,0.477-0.677,0.8-0.905c0.586-0.413,1.308-0.565,1.989-0.306   c1.15,0.436,1.698,1.743,1.416,2.89c-1.085-0.165-2.214-0.205-3.377-0.096c-0.196,0.018-0.343,0.106-0.449,0.223   c-0.122-0.036-0.246-0.062-0.369-0.091c0.053-0.114,0.078-0.253,0.029-0.443c-0.03-0.118-0.129-0.181-0.236-0.213   c0.039-0.231,0.035-0.45,0.003-0.659C20.403,2.636,20.484,2.468,20.5,2.437z M16.37,1.756c1.331-0.285,2.083,0.518,2.82,1.377   c-0.008,0.197,0.001,0.394,0.045,0.592c0.021,0.092,0.06,0.169,0.101,0.243c-1.6-0.116-3.235,0.291-4.813,1.045   C14.324,3.678,14.937,2.063,16.37,1.756z M8.512,5.684c0.627-0.568,1.552-0.654,2.348-0.5c0.72,0.139,1.294,0.612,1.993,0.758   c0,0,0.001,0,0.001,0c-1.44,0.933-2.796,2.133-3.991,3.462c0.051-0.121,0.029-0.274-0.112-0.354   C7.569,8.375,7.538,6.565,8.512,5.684z M3.642,11.299c1.035-1.399,2.75-1.156,4.181-0.65c-1.13,1.45-2.065,2.993-2.7,4.487   c-0.005-0.255-0.195-0.523-0.476-0.504c-0.208,0.014-0.411,0.062-0.613,0.109C3.081,13.914,2.87,12.342,3.642,11.299z M1.71,18.406   c0.427-1.562,1.815-2.275,3.179-2.88c0.039-0.017,0.066-0.043,0.095-0.068c-0.302,0.757-0.53,1.498-0.664,2.201   c-0.272,1.426-0.3,2.814-0.142,4.154c-0.167,0.023-0.332,0.08-0.493,0.152C2.295,21.433,1.295,19.924,1.71,18.406z M2.752,25.66   c-0.188-0.767,0.182-1.554,0.685-2.112c0.259-0.287,0.595-0.473,0.906-0.683c0.276,1.389,0.759,2.716,1.421,3.956   C4.716,27.557,3.06,26.917,2.752,25.66z M8.726,32.03c-1.147,0.823-2.988,0.881-3.794-0.426c-0.446-0.722-0.386-1.642-0.006-2.379   c0.359-0.698,0.937-0.907,1.476-1.317c0.791,1.233,1.752,2.371,2.847,3.381C9.039,31.494,8.867,31.757,8.726,32.03z M12.399,34.893   c-0.747,0.518-1.896,0.56-2.49-0.171c-0.393-0.484-0.424-1.171-0.258-1.747c0.102-0.355,0.309-0.624,0.513-0.893   c0.844,0.684,1.745,1.306,2.697,1.843C12.647,34.202,12.497,34.543,12.399,34.893z M17.911,36.029   c-0.094,0.171-0.178,0.349-0.255,0.53c-0.69,1.079-2.265,1.801-3.33,0.908c-0.496-0.416-0.708-1.112-0.681-1.741   c0.02-0.458,0.198-0.821,0.391-1.189c1.252,0.598,2.56,1.076,3.901,1.388C17.928,35.96,17.922,35.995,17.911,36.029z    M20.047,40.335c-2.228,0.045-1.45-2.868-1.085-4.205c0.213,0.037,0.427,0.073,0.641,0.102c0.51,0.069,1.013,0.102,1.51,0.112   c0.047,0.774,0.375,1.556,0.831,2.131C21.766,39.464,21.197,40.312,20.047,40.335z M24.841,38.452   c-0.813,0.084-1.586-0.286-2.037-0.965c-0.256-0.386-0.345-0.784-0.383-1.194c1.113-0.092,2.19-0.313,3.216-0.668   c0.186,0.476,0.481,0.918,0.838,1.305C26.335,37.69,25.773,38.355,24.841,38.452z M29.129,36.816   c-1.173,0.103-1.674-0.823-2.163-1.73c1.19-0.556,2.306-1.267,3.324-2.12c0.154,0.121,0.324,0.227,0.496,0.326   C31.107,34.811,30.981,36.653,29.129,36.816z M25.847,33.751c-0.135-0.005-0.261,0.04-0.341,0.143   c-1.284,0.497-2.659,0.771-4.11,0.748C13.539,34.518,5.99,28.157,5.897,20.107c-0.077-6.693,8.036-14.934,14.92-15.01   c0.103,0.144,0.267,0.246,0.512,0.242c6.438-0.113,11.971,4.269,13.423,10.311c-0.056,0.169-0.027,0.353,0.115,0.498   c0.168,0.839,0.264,1.705,0.267,2.597C35.152,24.655,31.435,31.38,25.847,33.751z M34.527,32.07   c-0.703,0.48-1.619,0.545-2.42,0.292c-0.261-0.083-0.486-0.243-0.701-0.418c1.108-1.112,2.081-2.381,2.884-3.76   c0.318,0.171,0.658,0.28,0.984,0.359C35.825,29.739,35.678,31.284,34.527,32.07z M37.901,26.757   c-0.565,0.518-1.403,0.701-2.147,0.574c-0.129-0.022-0.242-0.069-0.353-0.119c-0.132-0.112-0.275-0.214-0.425-0.306   c0.641-1.318,1.138-2.708,1.465-4.129c0.149,0.03,0.307,0.029,0.463,0.032C38.331,23.461,39.194,25.572,37.901,26.757z    M39.518,20.075c-0.389,0.656-1.106,1.102-1.849,1.243c-0.343,0.066-0.65,0.028-0.951-0.033c0.054-0.372,0.101-0.745,0.131-1.118   c0.102-1.265,0.038-2.51-0.162-3.716c0.204-0.04,0.405-0.102,0.602-0.174C38.954,16.569,40.5,18.42,39.518,20.075z"
   id="path2" />
	<path
   style="fill:#fff04a;fill-opacity:1"
   d="M19.282,8.523c-0.736,0.041-1.444,0.455-1.582,1.227c-0.063,0.351,0.396,0.586,0.598,0.252   c0.258-0.429,0.558-0.823,1.052-0.982C19.61,8.937,19.579,8.507,19.282,8.523z"
   id="path4" />
	<path
   style="fill:#fff04a;fill-opacity:1"
   d="M21.078,9.603c-0.245-0.17-0.544,0.217-0.319,0.414c0.784,0.69,0.708,1.535,0.621,2.476   c-0.02,0.218,0.3,0.349,0.441,0.183C22.635,11.716,21.997,10.24,21.078,9.603z"
   id="path6" />
	<path
   style="fill:#fff04a;fill-opacity:1"
   d="M24.09,9.515c-0.314,0.216-0.881,0.081-0.88-0.366c0.001-0.293-0.483-0.379-0.528-0.072   c-0.134,0.92,1.116,1.732,1.779,0.917C24.662,9.748,24.4,9.302,24.09,9.515z"
   id="path8" />
	<path
   style="fill:#fff04a;fill-opacity:1"
   d="M25.23,7.597c-0.247,0.035-0.167,0.401,0.056,0.414c0.413,0.025,0.777,0.181,1.08,0.463   c0.28,0.261,0.361,0.576,0.567,0.878c0.199,0.292,0.741,0.215,0.717-0.194C27.585,8.036,26.198,7.461,25.23,7.597z"
   id="path10" />
	<path
   style="fill:#fff04a;fill-opacity:1"
   d="M22.346,6.949c-0.61-0.15-1.127,0.207-1.275,0.81c-0.057,0.232,0.301,0.41,0.405,0.171   c0.142-0.327,0.452-0.504,0.807-0.514C22.543,7.407,22.613,7.015,22.346,6.949z"
   id="path12" />
	<path
   style="fill:#fff04a;fill-opacity:1"
   d="M16.149,7.671c-0.654,0.846-0.936,1.892-0.524,2.907c0.148,0.365,0.683,0.236,0.6-0.165   c-0.173-0.832-0.126-1.703,0.305-2.447C16.663,7.735,16.322,7.447,16.149,7.671z"
   id="path14" />
	<path
   style="fill:#fff04a;fill-opacity:1"
   d="M18.472,11.303c-0.311-0.289-0.707,0.137-0.455,0.455c0.317,0.4-0.019,0.849-0.338,1.104   c-0.312,0.25,0.032,0.703,0.364,0.626C19.015,13.263,19.132,11.916,18.472,11.303z"
   id="path16" />
	<path
   style="fill:#fff04a;fill-opacity:1"
   d="M13.833,10.611c-1.014,0.467-1.612,1.882-0.825,2.8c0.218,0.254,0.631-0.018,0.547-0.318   c-0.214-0.759-0.232-1.608,0.518-2.072C14.337,10.858,14.107,10.485,13.833,10.611z"
   id="path18" />
	<path
   style="fill:#fff04a;fill-opacity:1"
   d="M16.237,12.741c-0.068-0.318-0.586-0.25-0.57,0.077c0.05,0.983-0.544,1.807-1.277,2.408   c-0.232,0.19,0.019,0.558,0.282,0.485C15.958,15.354,16.501,13.977,16.237,12.741z"
   id="path20" />
	<path
   style="fill:#fff04a;fill-opacity:1"
   d="M10.804,13.661c-0.262,0.268,0.138,0.666,0.41,0.41c0.387-0.363,0.995,0.025,1.065,0.476   c0.047,0.304,0.47,0.193,0.497-0.067C12.883,13.448,11.475,12.975,10.804,13.661z"
   id="path22" />
	<path
   style="fill:#fff04a;fill-opacity:1"
   d="M10.28,15.274c-0.601,0.078-1.019,0.339-1.25,0.918c-0.23,0.575-0.13,1.243,0.4,1.611   c0.293,0.203,0.666-0.194,0.483-0.483c-0.332-0.525-0.379-1.562,0.407-1.745C10.485,15.536,10.454,15.251,10.28,15.274z"
   id="path24" />
	<path
   style="fill:#fff04a;fill-opacity:1"
   d="M12.036,16.466c-0.264-0.044-0.376,0.323-0.112,0.407c0.738,0.234,0.601,1.217,0.111,1.616   c-0.216,0.176,0.018,0.517,0.262,0.45C13.512,18.6,13.182,16.656,12.036,16.466z"
   id="path26" />
	<path
   style="fill:#fff04a;fill-opacity:1"
   d="M10.72,18.348c-0.386,0.759-0.686,1.719-0.424,2.562c0.118,0.378,0.667,0.302,0.684-0.092   c0.034-0.791-0.032-1.493,0.241-2.258C11.325,18.267,10.86,18.071,10.72,18.348z"
   id="path28" />
	<path
   style="fill:#fff04a;fill-opacity:1"
   d="M9.708,22.438c-0.709-0.107-1.42-0.772-1.158-1.536c0.077-0.224-0.282-0.379-0.385-0.163   c-0.492,1.024,0.176,2.526,1.454,2.361C9.953,23.058,10.123,22.501,9.708,22.438z"
   id="path30" />
	<path
   style="fill:#fff04a;fill-opacity:1"
   d="M11.606,25.636c-0.175,0.267-0.803,0.181-0.807-0.171c-0.004-0.308-0.475-0.389-0.549-0.074   c-0.274,1.172,1.747,1.666,1.935,0.489C12.239,25.535,11.812,25.321,11.606,25.636z"
   id="path32" />
	<path
   style="fill:#fff04a;fill-opacity:1"
   d="M14.108,22.544c-0.525-0.966-1.809-0.315-2.165,0.426c-0.167,0.347,0.306,0.631,0.519,0.303   c0.153-0.235,0.6-0.641,0.908-0.432c0.14,0.095,0.155,0.549-0.095,0.474c-0.4-0.121-0.535,0.461-0.168,0.61   C13.881,24.24,14.447,23.169,14.108,22.544z"
   id="path34" />
	<path
   style="fill:#fff04a;fill-opacity:1"
   d="M16.203,20.188c-0.487,0.167-1.2-0.135-1.226-0.7c-0.019-0.41-0.6-0.403-0.633,0   c-0.086,1.067,1.188,1.939,2.09,1.25C16.681,20.55,16.556,20.067,16.203,20.188z"
   id="path36" />
	<path
   style="fill:#fff04a;fill-opacity:1"
   d="M18.074,17.015c-0.085-0.056-0.202-0.031-0.273,0.035c-0.219,0.205-0.437,0.41-0.655,0.614   c-0.141,0.132,0.05,0.393,0.211,0.273l0.584-0.435c0.248,0.226,0.471,0.473,0.642,0.765c0.189,0.322,0.283,0.683,0.458,1.009   c0.114,0.212,0.423,0.102,0.432-0.117C19.511,18.278,18.763,17.463,18.074,17.015z"
   id="path38" />
	<path
   style="fill:#fff04a;fill-opacity:1"
   d="M21.099,16.025c-0.478-0.507-0.778-1.136-0.717-1.84c0.025-0.29-0.444-0.351-0.508-0.069   c-0.211,0.933,0.054,1.843,0.841,2.406C21.017,16.737,21.337,16.277,21.099,16.025z"
   id="path40" />
	<path
   style="fill:#fff04a;fill-opacity:1"
   d="M24.181,13.839c-0.225,0.127-0.075,0.509,0.179,0.424c-0.269,0.09-0.393,0.03-0.618-0.063   c-0.251-0.103-0.393,0.291-0.179,0.424c0.378,0.235,1.225,0.489,1.326-0.19C24.95,14.028,24.577,13.615,24.181,13.839z"
   id="path42" />
	<path
   style="fill:#fff04a;fill-opacity:1"
   d="M24.83,12.268c-0.232,0.105-0.067,0.502,0.175,0.415c0.797-0.289,1.52,0.601,1.273,1.351   c-0.093,0.281,0.328,0.45,0.472,0.199C27.419,13.071,25.97,11.754,24.83,12.268z"
   id="path44" />
	<path
   style="fill:#fff04a;fill-opacity:1"
   d="M24.511,16.75c-0.87,0.159-1.762-0.155-2.39-0.765c-0.185-0.18-0.539,0.064-0.373,0.288   c0.682,0.917,1.728,1.395,2.872,1.285C25.21,17.501,25.104,16.642,24.511,16.75z"
   id="path46" />
	<path
   style="fill:#fff04a;fill-opacity:1"
   d="M28.372,11.148c-0.322-0.054-0.463,0.401-0.137,0.498c0.823,0.245,1.142,1.019,1.082,1.818   c-0.017,0.229,0.344,0.331,0.442,0.12C30.236,12.56,29.448,11.327,28.372,11.148z"
   id="path48" />
	<path
   style="fill:#fff04a;fill-opacity:1"
   d="M32.213,13.335c-0.168-0.324-0.628-0.04-0.483,0.282c0.422,0.934-0.608,1.707-1.434,1.774   c-0.435,0.035-0.505,0.592-0.101,0.746C31.762,16.732,32.856,14.575,32.213,13.335z"
   id="path50" />
	<path
   style="fill:#fff04a;fill-opacity:1"
   d="M29.179,17.592c-0.583-0.595-0.689-1.671-0.011-2.224c0.262-0.214-0.076-0.635-0.358-0.464   c-1.133,0.689-1.309,2.569-0.008,3.177C29.109,18.224,29.439,17.858,29.179,17.592z"
   id="path52" />
	<path
   style="fill:#fff04a;fill-opacity:1"
   d="M32.5,17.094c-0.112-0.338-0.593-0.2-0.529,0.146c0.112,0.606,0.015,1.201-0.266,1.749   c-0.254,0.494-0.665,0.81-1.021,1.22c-0.229,0.264-0.015,0.729,0.359,0.617C32.512,20.385,32.928,18.379,32.5,17.094z"
   id="path54" />
	<path
   style="fill:#fff04a;fill-opacity:1"
   d="M30.547,22.675c-0.543-1.252-0.924-2.472-0.402-3.809c0.09-0.232-0.276-0.375-0.395-0.167   c-0.785,1.371-0.964,3.214,0.201,4.435C30.271,23.471,30.708,23.046,30.547,22.675z"
   id="path56" />
	<path
   style="fill:#fff04a;fill-opacity:1"
   d="M26.707,18.342c-0.385,0.558-0.799,1.111-1.052,1.744c-0.135,0.338,0.378,0.619,0.608,0.354   c0.445-0.514,0.746-1.14,1.063-1.736C27.545,18.292,26.968,17.965,26.707,18.342z"
   id="path58" />
	<path
   style="fill:#fff04a;fill-opacity:1"
   d="M21.841,18.691c-0.114-0.256-0.539-0.074-0.453,0.191c0.281,0.87,0.259,1.702,0.264,2.602   c0.002,0.326,0.483,0.396,0.57,0.077C22.485,20.598,22.237,19.58,21.841,18.691z"
   id="path60" />
	<path
   style="fill:#fff04a;fill-opacity:1"
   d="M25.068,22.393c-0.507-0.53-0.753-1.364-0.457-2.056c0.127-0.296-0.279-0.56-0.446-0.261   c-0.538,0.961-0.336,2.109,0.565,2.756C24.994,23.022,25.28,22.614,25.068,22.393z"
   id="path62" />
	<path
   style="fill:#fff04a;fill-opacity:1"
   d="M27.221,22.081c-0.137-0.387-0.72-0.236-0.62,0.171c0.109,0.444,0.1,0.868-0.025,1.308   c-0.118,0.414-0.369,0.738-0.534,1.127c-0.118,0.278,0.135,0.615,0.44,0.44C27.476,24.557,27.563,23.045,27.221,22.081z"
   id="path64" />
	<path
   style="fill:#fff04a;fill-opacity:1"
   d="M30.243,24.941c-0.441,0.661-0.881,1.148-1.703,1.28c-0.35,0.056-0.27,0.646,0.084,0.622   c0.968-0.065,2.009-0.632,2.284-1.621C31.021,24.812,30.467,24.605,30.243,24.941z"
   id="path66" />
	<path
   style="fill:#fff04a;fill-opacity:1"
   d="M27.517,28.773c-0.658,0.093-1.162-0.676-1.151-1.257c0.006-0.289-0.439-0.436-0.57-0.154   c-0.576,1.238,0.678,2.449,1.928,2.164C28.226,29.411,27.999,28.705,27.517,28.773z"
   id="path68" />
	<path
   style="fill:#fff04a;fill-opacity:1"
   d="M24.172,24.535c0.118-0.287-0.361-0.486-0.501-0.211c-0.42,0.82-0.492,1.664-0.264,2.555   c0.08,0.314,0.531,0.177,0.478-0.132C23.757,26,23.886,25.232,24.172,24.535z"
   id="path70" />
	<path
   style="fill:#fff04a;fill-opacity:1"
   d="M22.955,23.552c-0.549-0.035-1.115,0.046-1.664,0.081c-0.342,0.022-0.349,0.545,0,0.538   c0.576-0.012,1.168,0.015,1.738-0.07C23.356,24.052,23.251,23.57,22.955,23.552z"
   id="path72" />
	<path
   style="fill:#fff04a;fill-opacity:1"
   d="M19.367,20.563c-0.898,0.788-1.183,1.995-0.686,3.082c0.155,0.34,0.652,0.09,0.578-0.244   c-0.184-0.836-0.027-1.751,0.533-2.413C20.042,20.693,19.661,20.305,19.367,20.563z"
   id="path74" />
	<path
   style="fill:#fff04a;fill-opacity:1"
   d="M18.052,25.122c-0.707-0.269-1.288-1.12-1.137-1.888c0.068-0.345-0.419-0.484-0.529-0.146   c-0.373,1.147,0.249,2.445,1.492,2.665C18.294,25.826,18.447,25.272,18.052,25.122z"
   id="path76" />
	<path
   style="fill:#fff04a;fill-opacity:1"
   d="M20.89,25.742c-0.112-0.302-0.562-0.188-0.488,0.135c0.192,0.84-0.388,1.724-1.195,1.981   c-0.377,0.12-0.215,0.636,0.16,0.58C20.603,28.252,21.315,26.892,20.89,25.742z"
   id="path78" />
	<path
   style="fill:#fff04a;fill-opacity:1"
   d="M16.963,27.122c-0.294-0.032-0.645-0.059-0.889-0.244c-0.211-0.16-0.357-0.523-0.036-0.664   c0.243-0.107,0.069-0.495-0.179-0.424c-0.496,0.142-0.671,0.696-0.497,1.158c0.239,0.635,1.02,0.71,1.601,0.712   C17.317,27.661,17.3,27.159,16.963,27.122z"
   id="path80" />
	<path
   style="fill:#fff04a;fill-opacity:1"
   d="M15.095,29.913c-0.419-0.289-0.661-0.847-0.522-1.34c0.073-0.259-0.315-0.436-0.443-0.187   c-0.417,0.808-0.109,1.718,0.746,2.047C15.194,30.556,15.344,30.085,15.095,29.913z"
   id="path82" />
	<path
   style="fill:#fff04a;fill-opacity:1"
   d="M13.427,27.291c-0.436,0.453-0.872,0.906-1.307,1.359c-0.212,0.221,0.115,0.548,0.336,0.336   c0.453-0.436,0.906-0.872,1.359-1.307C14.07,27.434,13.672,27.036,13.427,27.291z"
   id="path84" />
	<path
   style="fill:#fff04a;fill-opacity:1"
   d="M18.202,30.01c-0.203-0.35-0.765-0.012-0.537,0.314c0.298,0.427,0.326,0.904,0.061,1.358   c-0.157,0.268,0.236,0.486,0.41,0.24C18.545,31.34,18.556,30.62,18.202,30.01z"
   id="path86" />
	<path
   style="fill:#fff04a;fill-opacity:1"
   d="M22.339,28.966c-0.859-0.22-1.694,0.293-1.968,1.116c-0.091,0.275,0.325,0.378,0.427,0.118   c0.24-0.612,0.858-0.894,1.485-0.82C22.522,29.408,22.565,29.023,22.339,28.966z"
   id="path88" />
	<path
   style="fill:#fff04a;fill-opacity:1"
   d="M22.837,32.28c-0.674,0.395-1.547,0.321-2.061-0.293c-0.19-0.227-0.591,0.077-0.414,0.319   c0.65,0.892,1.936,1.144,2.782,0.371C23.358,32.482,23.083,32.136,22.837,32.28z"
   id="path90" />
	<path
   style="fill:#fff04a;fill-opacity:1"
   d="M23.75,29.418c-0.263-0.083-0.425,0.308-0.187,0.443c0.588,0.334,0.924,0.958,0.996,1.621   c0.046,0.425,0.622,0.429,0.664,0C25.321,30.504,24.655,29.703,23.75,29.418z"
   id="path92" />
</g>
<g
   id="g96">
</g>
<g
   id="g98">
</g>
<g
   id="g100">
</g>
<g
   id="g102">
</g>
<g
   id="g104">
</g>
<g
   id="g106">
</g>
<g
   id="g108">
</g>
<g
   id="g110">
</g>
<g
   id="g112">
</g>
<g
   id="g114">
</g>
<g
   id="g116">
</g>
<g
   id="g118">
</g>
<g
   id="g120">
</g>
<g
   id="g122">
</g>
<g
   id="g124">
</g>
</svg>