<?xml version="1.0" encoding="UTF-8" standalone="no"?>
<svg
   xmlns:dc="http://purl.org/dc/elements/1.1/"
   xmlns:cc="http://creativecommons.org/ns#"
   xmlns:rdf="http://www.w3.org/1999/02/22-rdf-syntax-ns#"
   xmlns:svg="http://www.w3.org/2000/svg"
   xmlns="http://www.w3.org/2000/svg"
   xmlns:sodipodi="http://sodipodi.sourceforge.net/DTD/sodipodi-0.dtd"
   xmlns:inkscape="http://www.inkscape.org/namespaces/inkscape"
   id="svg845"
   version="1.1"
   viewBox="0 0 210 200"
   height="200mm"
   width="210mm"
   sodipodi:docname="peas.svg"
   inkscape:version="0.92.3 (2405546, 2018-03-11)">
  <sodipodi:namedview
     pagecolor="#ffffff"
     bordercolor="#666666"
     borderopacity="1"
     objecttolerance="10"
     gridtolerance="10"
     guidetolerance="10"
     inkscape:pageopacity="0"
     inkscape:pageshadow="2"
     inkscape:window-width="1920"
     inkscape:window-height="1017"
     id="namedview9"
     showgrid="false"
     inkscape:zoom="0.2102413"
     inkscape:cx="396.85041"
     inkscape:cy="561.25983"
     inkscape:window-x="0"
     inkscape:window-y="30"
     inkscape:window-maximized="1"
     inkscape:current-layer="svg845" />
  <defs
     id="defs839">
    <clipPath
       clipPathUnits="userSpaceOnUse"
       id="clipPath824">
      <rect
         style="fill:none;fill-opacity:1;stroke-width:0.02953906"
         id="rect826"
         width="27.707079"
         height="23.842091"
         x="85.664001"
         y="118.37637" />
    </clipPath>
  </defs>
  <metadata
     id="metadata842">
    <rdf:RDF>
      <cc:Work
         rdf:about="">
        <dc:format>image/svg+xml</dc:format>
        <dc:type
           rdf:resource="http://purl.org/dc/dcmitype/StillImage" />
        <dc:title></dc:title>
      </cc:Work>
    </rdf:RDF>
  </metadata>
  <g
     id="layer1"
     transform="matrix(8.5390892,0,0,9.3955044,-743.94836,-1110.8809)"
     clip-path="url(#clipPath824)">
    <g
       style="fill:#fff04a;fill-opacity:1"
       id="g6"
       transform="matrix(0.26458333,0,0,0.26458333,85.767963,116.583)">
      <path
         style="fill:#fff04a;fill-opacity:1"
         id="path2"
         d="M 84.124,63.703 C 83.722,62.954 83.3,62.175 82.842,61.362 82.686,60.05 82.237,58.753 81.5,57.506 80.346,55.555 78.771,54.117 76.967,53.193 74.447,50.493 71.133,47.75 66.59,45.147 65.853,44.063 64.977,43.171 64.002,42.614 62.557,41.795 61.008,41.25 59.394,40.995 58.858,40.911 58.337,40.884 57.818,40.86 54.375,39.409 51.303,38.396 48.39,37.773 c -2.62,-2.029 -6.481,-2.738 -9.725,-1.417 -0.198,0.079 -0.338,0.193 -0.524,0.277 -2.109,-0.194 -4.237,-0.52 -6.449,-1.18 l -2.044,-0.62 0.42,2.096 c 0.02,0.094 0.888,4.072 3.498,9.189 0.009,0.025 0.008,0.06 0.015,0.084 l 0.15,0.249 c 0.868,1.662 1.907,3.435 3.178,5.233 l 0.473,0.777 0.2,0.113 c 2.51,3.383 5.812,6.773 10.099,9.635 0.009,0.007 0.02,0.019 0.025,0.028 l 0.314,0.254 c 0.236,0.139 0.442,0.238 0.675,0.362 2.601,1.625 5.511,3.064 8.849,4.151 2.442,0.8 4.737,1.522 6.93,2.195 l 0.013,0.02 0.612,0.171 c 3.821,1.165 7.227,2.136 10.177,2.895 l 0.632,0.178 0.026,-0.012 c 2.76,0.695 5.112,1.202 6.974,1.496 0,0 0,0 0.005,0 3.991,0.632 5.798,0.362 6.451,-0.971 0.733,-1.51 -0.839,-2.974 -1.431,-3.526 -1.441,-1.344 -2.539,-3.386 -3.809,-5.747 z m -4.103,0.758 c -0.855,2.651 -3.096,4.561 -4.334,5.271 -0.056,-0.015 -0.105,-0.028 -0.158,-0.037 L 66.317,67.073 C 66.242,67.054 66.17,67.03 66.1,67.01 c -0.548,-0.945 -1.77,-3.549 -1.033,-6.472 0.205,-0.816 0.537,-1.655 1.109,-2.494 0.453,-0.661 0.99,-1.234 1.579,-1.717 1.648,-1.348 3.747,-1.965 5.862,-1.631 0.606,0.096 1.186,0.277 1.748,0.521 1.569,0.684 2.931,1.906 3.927,3.591 0.638,1.08 0.95,2.176 1.013,3.282 0.044,0.785 -0.03,1.578 -0.284,2.371 z m -15.96,-7.866 c -0.629,0.923 -1.047,1.839 -1.336,2.733 -2.654,2.924 -4.717,3.891 -7.302,3.484 -1.546,-0.245 -3.406,-1.006 -5.817,-2.374 -0.04,-0.019 -0.073,-0.035 -0.11,-0.055 -0.005,-0.012 -0.019,-0.028 -0.023,-0.033 -0.64,-0.802 -3.156,-4.31 -2.191,-8.583 0.209,-0.925 0.574,-1.888 1.163,-2.862 0.775,-1.28 1.695,-2.324 2.703,-3.174 1.778,-1.48 3.86,-2.292 6.114,-2.319 0.568,-0.01 1.143,0.023 1.733,0.116 1.286,0.203 2.584,0.657 3.741,1.316 0.667,0.38 1.392,1.153 2.003,2.185 0.501,0.85 0.935,1.87 1.152,3.075 0.301,1.645 0.123,3.287 -0.414,4.846 -0.514,0.493 -0.998,1.031 -1.416,1.645 z M 48.167,41.234 c 0.436,0.702 0.824,1.78 0.651,3.1 -0.952,0.915 -1.814,2 -2.566,3.249 -0.534,0.882 -0.919,1.766 -1.197,2.64 -1.731,1.112 -3.793,1.322 -5.797,0.331 -0.021,-0.006 -0.033,-0.007 -0.054,-0.019 l -0.227,-0.373 -2.788,-4.509 -0.167,-0.27 c -0.004,-0.018 -0.008,-0.061 -0.012,-0.082 -0.173,-0.91 -0.504,-4.178 2.669,-6.061 0.302,-0.177 0.589,-0.364 0.958,-0.512 2.601,-1.056 5.746,-0.34 7.614,1.427 0.35,0.327 0.67,0.679 0.916,1.079 z M 72.105,52.07 c -1.228,0.047 -2.434,0.31 -3.553,0.791 0.088,-1.062 0.056,-2.135 -0.143,-3.212 -0.026,-0.148 -0.066,-0.289 -0.101,-0.431 1.413,0.943 2.671,1.895 3.797,2.852 z M 52.894,41.711 c -0.541,0.217 -1.065,0.472 -1.577,0.768 -0.084,-0.475 -0.212,-0.945 -0.395,-1.405 0.642,0.19 1.301,0.403 1.972,0.637 z M 35.217,38.827 c -0.542,0.646 -0.945,1.334 -1.229,2.032 -0.35,-0.905 -0.629,-1.709 -0.841,-2.373 0.7,0.161 1.379,0.232 2.07,0.341 z m 6.594,14.923 c 0.926,0.01 1.829,-0.133 2.697,-0.434 -0.041,1.26 0.125,2.459 0.417,3.559 -1.135,-1.011 -2.169,-2.061 -3.114,-3.125 z m 17.627,11.174 c 0.955,-0.361 1.893,-0.917 2.848,-1.674 0.083,1.031 0.312,1.966 0.581,2.769 -1.108,-0.351 -2.263,-0.721 -3.429,-1.095 z m 23.867,6.495 c -1.248,-0.198 -2.73,-0.495 -4.421,-0.886 1.323,-1.176 2.646,-2.836 3.403,-4.848 1.202,2.226 2.328,4.178 3.897,5.641 0.148,0.142 0.276,0.269 0.379,0.376 -0.58,0.023 -1.577,-0.018 -3.258,-0.283 z"
         inkscape:connector-curvature="0" />
      <path
         style="fill:#fff04a;fill-opacity:1"
         id="path4"
         d="m 89.454,64.952 c -0.613,-0.79 -1.273,-2.056 -2.04,-3.525 -4.335,-8.302 -13.282,-25.346 -51.59,-30.794 0.351,-0.482 0.673,-0.997 0.945,-1.584 l 1.017,-2.271 -2.438,0.48 c -0.009,0.004 -0.988,0.192 -2.312,-0.017 -1.932,-0.306 -3.564,-1.249 -4.855,-2.813 -1.759,-2.138 -4.194,-2.589 -6.117,-1.513 -0.501,-2.095 -1.476,-3.649 -2.975,-4.55 -1.885,-1.134 -4.417,-1.167 -7.319,-0.1 -0.949,0.351 -1.683,0.4 -2.067,0.137 C 9.277,18.112 9.161,17.377 9.154,17.139 9.143,16.435 8.565,15.865 7.862,15.879 7.156,15.88 6.587,16.46 6.591,17.169 c 0.004,0.229 0.062,2.243 1.652,3.337 1.122,0.771 2.608,0.833 4.41,0.162 1.498,-0.55 3.605,-1.018 5.117,-0.106 1.077,0.645 1.75,1.952 2.011,3.876 0.03,0.23 0.152,0.413 0.28,0.583 -0.868,1.575 -1.082,3.497 -0.455,5.177 1.319,3.533 0.322,9.017 -0.668,10.825 l -1.183,2.172 2.823,-0.328 c 1.438,-0.156 3.45,-0.396 5.025,-1.647 1.43,6.962 6.047,23.758 18.473,31.677 4.936,3.147 10.36,4.814 15.691,5.656 7.107,1.123 14.042,0.779 19.406,0.51 3.316,-0.162 6.179,-0.303 8.048,-0.056 3.587,0.493 5.154,-0.818 5.838,-2.003 1.808,-3.134 -0.811,-8.452 -3.605,-12.052 z M 22.026,40.072 c 0.822,-2.89 1.271,-7.324 -0.017,-10.773 -0.441,-1.178 -0.207,-2.584 0.607,-3.572 0.246,-0.307 0.926,-1.004 1.844,-0.859 0.576,0.091 1.182,0.5 1.748,1.188 2.326,2.822 5.103,3.595 6.939,3.783 -1.11,1.027 -2.617,1.397 -4.498,1.1 -1.112,-0.176 -1.922,-0.532 -1.933,-0.533 l -2.305,-1.022 0.53,2.457 c 0.694,3.222 0.571,5.511 -0.358,6.802 -0.61,0.839 -1.554,1.221 -2.557,1.429 z m 68.813,35.655 c -0.53,0.912 -2.069,0.906 -3.275,0.743 -2.096,-0.285 -5.077,-0.137 -8.519,0.034 C 69.44,76.983 56.281,77.633 45.457,70.737 31.43,61.792 27.884,39.695 27.621,37.935 c 0.328,-1.266 0.411,-2.755 0.192,-4.544 0.142,0.031 0.284,0.056 0.437,0.08 1.884,0.297 3.554,0.08 4.962,-0.604 38.934,4.877 47.385,21.048 51.928,29.749 0.863,1.643 1.537,2.939 2.288,3.91 2.849,3.67 4.316,7.625 3.411,9.201 z"
         inkscape:connector-curvature="0" />
    </g>
  </g>
</svg>
