<?xml version="1.0" encoding="UTF-8" standalone="no"?>
<!-- Generator: Adobe Illustrator 18.0.0, SVG Export Plug-In . SVG Version: 6.00 Build 0)  -->

<svg
   xmlns:dc="http://purl.org/dc/elements/1.1/"
   xmlns:cc="http://creativecommons.org/ns#"
   xmlns:rdf="http://www.w3.org/1999/02/22-rdf-syntax-ns#"
   xmlns:svg="http://www.w3.org/2000/svg"
   xmlns="http://www.w3.org/2000/svg"
   xmlns:sodipodi="http://sodipodi.sourceforge.net/DTD/sodipodi-0.dtd"
   xmlns:inkscape="http://www.inkscape.org/namespaces/inkscape"
   version="1.1"
   id="Capa_1"
   x="0px"
   y="0px"
   viewBox="0 0 453.502 453.502"
   style="enable-background:new 0 0 453.502 453.502;"
   xml:space="preserve"
   sodipodi:docname="sprout.svg"
   inkscape:version="0.92.3 (2405546, 2018-03-11)"><metadata
   id="metadata39"><rdf:RDF><cc:Work
       rdf:about=""><dc:format>image/svg+xml</dc:format><dc:type
         rdf:resource="http://purl.org/dc/dcmitype/StillImage" /></cc:Work></rdf:RDF></metadata><defs
   id="defs37" /><sodipodi:namedview
   pagecolor="#ffffff"
   bordercolor="#666666"
   borderopacity="1"
   objecttolerance="10"
   gridtolerance="10"
   guidetolerance="10"
   inkscape:pageopacity="0"
   inkscape:pageshadow="2"
   inkscape:window-width="724"
   inkscape:window-height="480"
   id="namedview35"
   showgrid="false"
   inkscape:zoom="0.5203946"
   inkscape:cx="226.75101"
   inkscape:cy="226.75101"
   inkscape:window-x="0"
   inkscape:window-y="30"
   inkscape:window-maximized="0"
   inkscape:current-layer="Capa_1" />
<path
   d="M432.556,240.664c-9.46-16.806-28.073-28.565-55.324-34.951c-57.239-13.408-142.227,0.206-185.589,29.734  c-36.994,25.191-62.776,81.019-47.328,133.769c-28.713-0.708-56.802-10.122-72.792-38.625  c-12.149-21.657-12.799-59.178-1.878-108.505c6.649-30.037,17.348-63.957,31.85-101.12c5.649,4.114,12.704,6.892,20.639,7.979  c2.577,0.353,5.177,0.526,7.768,0.526c9.142,0,18.155-2.165,25.564-6.241c36.682-20.182,42.528-60.311,42.76-62.009  c0.891-6.547-2.608-12.905-8.614-15.658c-1.51-0.692-36.334-16.246-71.868,1.161c-2.904-7.657-7.24-14.598-12.622-19.979  C72.617-5.759,28.514,0.354,26.653,0.628c-6.535,0.97-11.667,6.102-12.637,12.637c-0.275,1.861-6.388,45.963,26.119,78.469  c8.324,8.324,20.368,14.169,33.044,16.035c0.403,0.06,0.804,0.105,1.205,0.156C58.891,147.376,47.461,183.5,40.354,215.602  c-12.719,57.449-11.035,101.075,5.005,129.668c20.001,35.653,55.059,54.09,102.221,54.088c3.415,0,6.909-0.118,10.451-0.312  c23.857,36.694,65.91,54.457,103.987,54.457c11.254,0,22.167-1.552,32.149-4.625c26.96-8.297,56.014-27.198,81.81-53.222  c24.395-24.609,43.831-53.197,54.728-80.496C442.588,285.388,443.229,259.628,432.556,240.664z M128.806,74.776  c8.635-4.751,17.505-6.245,25.251-6.245c3.905,0,7.523,0.38,10.682,0.914c-3.701,8.828-10.753,20.36-23.734,27.503  c-3.807,2.094-9.615,2.986-14.797,2.276c-4.128-0.565-7.443-2.108-8.445-3.931c-1.003-1.822-0.531-5.448,1.2-9.238  C121.137,81.296,125,76.868,128.806,74.776z M61.348,70.521c-12.921-12.92-16.717-29.18-17.672-40.229  c11.066,0.954,27.317,4.753,40.232,17.667c7.358,7.358,10.427,23.078,5.472,28.033C84.427,80.947,68.707,77.879,61.348,70.521z   M402.843,304.037c-20.076,50.293-72.786,102.405-117.5,116.168c-31.016,9.542-85.598-1.419-107.412-46.837  c-21.794-45.376,3.767-94.854,30.597-113.124c36.166-24.628,113.313-36.693,161.86-25.322c18.207,4.267,31.001,11.531,36.023,20.457  C412.393,266.006,411.125,283.287,402.843,304.037z"
   id="path2"
   style="fill:#f4e76e;fill-opacity:1" />
<g
   id="g4">
</g>
<g
   id="g6">
</g>
<g
   id="g8">
</g>
<g
   id="g10">
</g>
<g
   id="g12">
</g>
<g
   id="g14">
</g>
<g
   id="g16">
</g>
<g
   id="g18">
</g>
<g
   id="g20">
</g>
<g
   id="g22">
</g>
<g
   id="g24">
</g>
<g
   id="g26">
</g>
<g
   id="g28">
</g>
<g
   id="g30">
</g>
<g
   id="g32">
</g>
</svg>