<?xml version="1.0" encoding="UTF-8" standalone="no"?>
<!-- Generator: Adobe Illustrator 18.0.0, SVG Export Plug-In . SVG Version: 6.00 Build 0)  -->

<svg
   xmlns:dc="http://purl.org/dc/elements/1.1/"
   xmlns:cc="http://creativecommons.org/ns#"
   xmlns:rdf="http://www.w3.org/1999/02/22-rdf-syntax-ns#"
   xmlns:svg="http://www.w3.org/2000/svg"
   xmlns="http://www.w3.org/2000/svg"
   xmlns:sodipodi="http://sodipodi.sourceforge.net/DTD/sodipodi-0.dtd"
   xmlns:inkscape="http://www.inkscape.org/namespaces/inkscape"
   version="1.1"
   id="Capa_1"
   x="0px"
   y="0px"
   viewBox="0 0 297 297"
   style="enable-background:new 0 0 297 297;"
   xml:space="preserve"
   sodipodi:docname="sprouts.svg"
   inkscape:version="0.92.3 (2405546, 2018-03-11)"><metadata
   id="metadata53"><rdf:RDF><cc:Work
       rdf:about=""><dc:format>image/svg+xml</dc:format><dc:type
         rdf:resource="http://purl.org/dc/dcmitype/StillImage" /></cc:Work></rdf:RDF></metadata><defs
   id="defs51" /><sodipodi:namedview
   pagecolor="#ffffff"
   bordercolor="#666666"
   borderopacity="1"
   objecttolerance="10"
   gridtolerance="10"
   guidetolerance="10"
   inkscape:pageopacity="0"
   inkscape:pageshadow="2"
   inkscape:window-width="724"
   inkscape:window-height="480"
   id="namedview49"
   showgrid="false"
   inkscape:zoom="0.79461279"
   inkscape:cx="148.5"
   inkscape:cy="148.5"
   inkscape:window-x="0"
   inkscape:window-y="30"
   inkscape:window-maximized="0"
   inkscape:current-layer="Capa_1" />
<g
   id="g16"
   style="fill:#f4e76e;fill-opacity:1">
	<path
   d="M60.506,181.181H10.458C4.682,181.181,0,185.863,0,191.639s4.682,10.458,10.458,10.458h50.048v11.215   c0,5.775,4.682,10.458,10.458,10.458c5.775,0,10.458-4.683,10.458-10.458v-11.215h45.491l14.193,14.193   c2.043,2.042,4.718,3.063,7.395,3.063s5.352-1.021,7.395-3.063l14.193-14.193h36.976v11.215c0,5.775,4.682,10.458,10.458,10.458   c5.775,0,10.458-4.683,10.458-10.458v-11.215h58.563c5.775,0,10.458-4.682,10.458-10.458s-4.682-10.458-10.458-10.458h-58.563   v-69.426c9.299-0.684,22.278-3.514,32.663-12.977c11.6-10.571,16.993-26.339,16.03-46.867c-0.252-5.368-4.531-9.671-9.899-9.953   c-1.102-0.052-25.63-1.151-43.136,13.584c-1.957-4.656-4.697-9.303-8.54-13.521c-10.571-11.6-26.333-16.991-46.867-16.03   c-5.368,0.252-9.671,4.531-9.953,9.899c-0.061,1.179-1.306,29.075,16.814,46.601c8.242,7.971,19.201,12.416,31.973,13.298v85.391   h-41.308c-2.774,0-5.433,1.102-7.395,3.063l-9.86,9.86l-9.86-9.86c-1.962-1.961-4.621-3.063-7.395-3.063H81.421v-69.426   c9.299-0.684,22.278-3.514,32.663-12.977c11.6-10.571,16.993-26.339,16.03-46.867c-0.252-5.368-4.531-9.671-9.898-9.953   c-1.104-0.052-25.631-1.151-43.137,13.584c-1.957-4.656-4.697-9.303-8.54-13.521c-10.571-11.6-26.334-16.991-46.867-16.03   c-5.368,0.252-9.671,4.531-9.953,9.899c-0.061,1.179-1.306,29.075,16.814,46.601c8.242,7.971,19.201,12.416,31.973,13.298V181.181z    M255.458,63.687c-1.023,8.538-3.972,15.09-8.815,19.548c-5.554,5.113-12.91,6.956-18.665,7.552V89.67   c0.838-6.714,3.217-12.178,7.156-16.285C240.852,67.426,249.011,64.82,255.458,63.687z M180.006,47.205   c8.538,1.023,15.09,3.972,19.548,8.815c5.156,5.601,6.989,13.036,7.569,18.812c-7.244-0.699-13.08-3.141-17.419-7.303   C183.745,61.811,181.139,53.653,180.006,47.205z M108.9,63.687c-1.023,8.538-3.972,15.09-8.815,19.548   c-5.553,5.113-12.91,6.956-18.665,7.552V89.67c0.838-6.714,3.217-12.178,7.157-16.285C94.295,67.426,102.453,64.82,108.9,63.687z    M33.448,47.205c8.538,1.023,15.09,3.972,19.548,8.815c5.156,5.601,6.989,13.036,7.569,18.812   c-7.244-0.699-13.08-3.141-17.419-7.303C37.187,61.811,34.581,53.653,33.448,47.205z"
   id="path2"
   style="fill:#f4e76e;fill-opacity:1" />
	<path
   d="M269.287,232.947h-17.255c-5.775,0-10.458,4.682-10.458,10.458c0,5.775,4.682,10.458,10.458,10.458h17.255   c5.775,0,10.458-4.682,10.458-10.458C279.745,237.629,275.062,232.947,269.287,232.947z"
   id="path4"
   style="fill:#f4e76e;fill-opacity:1" />
	<path
   d="M131.245,232.947h-17.255c-5.775,0-10.458,4.682-10.458,10.458c0,5.775,4.682,10.458,10.458,10.458h17.255   c5.775,0,10.458-4.682,10.458-10.458C141.702,237.629,137.02,232.947,131.245,232.947z"
   id="path6"
   style="fill:#f4e76e;fill-opacity:1" />
	<path
   d="M27.713,215.691H10.458C4.682,215.691,0,220.374,0,226.149c0,5.775,4.682,10.458,10.458,10.458h17.255   c5.775,0,10.458-4.682,10.458-10.458C38.171,220.374,33.488,215.691,27.713,215.691z"
   id="path8"
   style="fill:#f4e76e;fill-opacity:1" />
	<path
   d="M193.468,226.149c0-5.775-4.682-10.458-10.458-10.458h-17.255c-5.775,0-10.458,4.682-10.458,10.458   c0,5.775,4.682,10.458,10.458,10.458h17.255C188.786,236.607,193.468,231.924,193.468,226.149z"
   id="path10"
   style="fill:#f4e76e;fill-opacity:1" />
	<path
   d="M79.479,250.202H62.224c-5.775,0-10.458,4.682-10.458,10.458c0,5.775,4.682,10.458,10.458,10.458h17.255   c5.775,0,10.458-4.682,10.458-10.458C89.937,254.885,85.254,250.202,79.479,250.202z"
   id="path12"
   style="fill:#f4e76e;fill-opacity:1" />
	<path
   d="M217.521,250.202h-17.255c-5.775,0-10.458,4.682-10.458,10.458c0,5.775,4.682,10.458,10.458,10.458h17.255   c5.775,0,10.458-4.682,10.458-10.458C227.979,254.885,223.296,250.202,217.521,250.202z"
   id="path14"
   style="fill:#f4e76e;fill-opacity:1" />
</g>
<g
   id="g18">
</g>
<g
   id="g20">
</g>
<g
   id="g22">
</g>
<g
   id="g24">
</g>
<g
   id="g26">
</g>
<g
   id="g28">
</g>
<g
   id="g30">
</g>
<g
   id="g32">
</g>
<g
   id="g34">
</g>
<g
   id="g36">
</g>
<g
   id="g38">
</g>
<g
   id="g40">
</g>
<g
   id="g42">
</g>
<g
   id="g44">
</g>
<g
   id="g46">
</g>
</svg>