<?xml version="1.0" encoding="UTF-8" standalone="no"?>
<!-- Generator: Adobe Illustrator 18.0.0, SVG Export Plug-In . SVG Version: 6.00 Build 0)  -->

<svg
   xmlns:dc="http://purl.org/dc/elements/1.1/"
   xmlns:cc="http://creativecommons.org/ns#"
   xmlns:rdf="http://www.w3.org/1999/02/22-rdf-syntax-ns#"
   xmlns:svg="http://www.w3.org/2000/svg"
   xmlns="http://www.w3.org/2000/svg"
   xmlns:sodipodi="http://sodipodi.sourceforge.net/DTD/sodipodi-0.dtd"
   xmlns:inkscape="http://www.inkscape.org/namespaces/inkscape"
   version="1.1"
   id="Capa_1"
   x="0px"
   y="0px"
   viewBox="0 0 395.499 395.499"
   style="enable-background:new 0 0 395.499 395.499;"
   xml:space="preserve"
   sodipodi:docname="broccoli-porcion.svg"
   inkscape:version="0.92.3 (2405546, 2018-03-11)"><metadata
   id="metadata39"><rdf:RDF><cc:Work
       rdf:about=""><dc:format>image/svg+xml</dc:format><dc:type
         rdf:resource="http://purl.org/dc/dcmitype/StillImage" /></cc:Work></rdf:RDF></metadata><defs
   id="defs37" /><sodipodi:namedview
   pagecolor="#ffffff"
   bordercolor="#666666"
   borderopacity="1"
   objecttolerance="10"
   gridtolerance="10"
   guidetolerance="10"
   inkscape:pageopacity="0"
   inkscape:pageshadow="2"
   inkscape:window-width="1920"
   inkscape:window-height="1017"
   id="namedview35"
   showgrid="false"
   inkscape:zoom="0.59671454"
   inkscape:cx="197.7495"
   inkscape:cy="197.7495"
   inkscape:window-x="0"
   inkscape:window-y="30"
   inkscape:window-maximized="1"
   inkscape:current-layer="Capa_1" />
<path
   d="M366.286,114.11c0-15.295-10.751-27.928-25.271-30.708c-4.242-21.351-22.848-36.898-45.126-36.898  c-4.761,0-9.494,0.743-14.003,2.18C277.322,21.158,253.202,0,224.525,0c-15.479,0-30.167,6.124-41.035,16.959  c-6.59-3.485-13.918-5.307-21.468-5.307c-13.946,0-27.167,6.443-35.837,17.157c-4.691-2.684-10.026-4.119-15.521-4.119  c-17.251,0-31.286,14.035-31.286,31.286c0,1.132,0.059,2.253,0.177,3.363c-1.429-0.134-2.865-0.202-4.307-0.202  c-25.384,0-46.036,20.651-46.036,46.036c0,12.766,5.182,24.711,14.351,33.387c-0.761,2.796-1.145,5.683-1.145,8.627  c0,18.123,14.744,32.866,32.866,32.866c6.454,0,12.706-1.906,18.01-5.382c5.958,5.833,70.619,79.934,72.553,160.188  c0.238,9.89,0.406,18.664,0.498,26.078c0.237,19.059,15.939,34.563,35.003,34.563h2.492c18.208,0,33.541-14.228,34.907-32.39  c0.167-2.216,0.328-4.267,0.475-6.002c3.418-40.386,13.337-79.153,29.48-115.224c13.129-29.336,26.689-49.264,40.341-59.315  c2.7,0.711,5.514,1.088,8.388,1.088c18.122,0,32.866-14.744,32.866-32.866c0-2.998-0.395-5.924-1.178-8.752  C359.481,136.806,366.286,126.095,366.286,114.11z M257.751,236.981c-16.695,37.305-26.952,77.381-30.484,119.113  c-0.15,1.767-0.314,3.857-0.484,6.114c-0.898,11.938-10.975,21.291-22.941,21.291h-2.492c-12.528,0-22.848-10.189-23.004-22.713  c-0.093-7.46-0.261-16.281-0.501-26.217c-1.119-46.417-18.361-86.126-32.629-111.264c-6.503-11.458-12.93-20.941-18.244-28.142  c0.779,0.043,1.559,0.078,2.346,0.078c6.281,0,12.294-1.382,17.722-3.908c5.467,6.618,16.975,21.173,24.703,35.333  c2.063,3.78,5.946,6.029,10.11,6.029c0.767,0,1.542-0.076,2.318-0.233c4.991-1.009,8.689-5.097,9.201-10.171  c1.17-11.587,1.798-23.272,2.103-30.284c0.966,0.052,1.934,0.085,2.907,0.085c5.922,0,11.721-0.975,17.203-2.805l-2.152,26.997  c-0.514,6.448,3.192,12.353,9.222,14.693c1.738,0.674,3.532,1,5.301,1c4.372,0,8.592-1.989,11.419-5.624l33.825-43.501  c7.441-1.432,14.299-4.845,19.93-9.931c1.26,1.385,2.636,2.647,4.099,3.789C283.531,188.765,270.284,208.979,257.751,236.981z   M157.126,184.69c2.012-1.797,3.868-3.787,5.52-5.977c6.074,5.289,13.215,9.136,20.898,11.312c-0.263,6.362-0.849,18.05-1.97,29.62  C173.717,205.593,162.963,191.804,157.126,184.69z M228.104,183.242c3.89-2.535,7.471-5.57,10.633-9.058  c5.536,4.522,12.136,7.548,19.164,8.792l-27.999,36.009c-1.003,1.291-2.25,1.058-2.904,0.803c-0.654-0.254-1.732-0.923-1.603-2.553  L228.104,183.242z M339.859,132.778c-2.451,0.636-4.316,2.77-4.491,5.473c-0.073,1.138,0.253,2.257,0.761,3.278  c1.408,2.833,2.137,5.874,2.169,9.046c0.095,9.574-6.098,17.913-15.355,20.359c-9.723,2.568-19.426-1.911-23.924-10.328  c-0.374-0.7-0.838-1.363-1.47-1.843c-2.937-2.235-6.675-1.498-8.602,1.041c-5.699,7.508-14.362,11.813-23.767,11.813  c-8.569,0-16.722-3.695-22.393-10.142c-0.656-0.746-1.443-1.385-2.369-1.746c-2.739-1.068-5.64-0.072-7.181,2.139  c-7.953,11.411-20.983,18.223-34.856,18.223c-12.364,0-24.076-5.377-32.166-14.76c-0.838-0.972-1.915-1.743-3.16-2.054  c-2.896-0.722-5.704,0.701-6.914,3.184c-5.044,10.35-15.322,16.779-26.824,16.779c-12.735,0-24.055-8.08-28.196-20.115  c-0.574-1.669-1.837-3.064-3.476-3.72c-0.736-0.294-1.488-0.432-2.233-0.432c-1.7,0-3.343,0.724-4.494,2.025  c-3.965,4.483-9.663,7.054-15.632,7.054c-11.506,0-20.866-9.36-20.866-20.866c0-0.027,0-0.054,0-0.08  c0.019-4.844,2.304-9.412,6.008-12.535c2.959-2.495,7.12-4.8,11.998-4.15c2.503,0.333,5.049-0.73,6.222-2.965  c2.086-3.976-0.42-8.328-4.399-8.896c-11.158-1.592-19.523,4.503-24.286,9.389c-6.054-6.691-9.223-15.511-8.691-24.785  c0.912-15.874,13.008-29.208,28.723-31.623c5.464-0.84,10.944-0.362,16.114,1.376c1.245,0.419,2.601,0.497,3.831,0.036  c3.685-1.382,4.982-5.327,3.453-8.397c-1.336-2.683-2.014-5.569-2.014-8.58c0-10.634,8.651-19.286,19.286-19.286  c8.089,0,13.611,5.544,14.09,6.071c1.364,1.5,3.861,5.009,3.186,10.036c-0.302,2.252,0.714,4.544,2.649,5.734  c1.109,0.682,2.239,0.968,3.317,0.968c2.972,0,5.553-2.207,5.943-5.232c1.021-7.912-1.909-13.886-4.614-17.561  c6.406-8.141,16.319-13.054,26.785-13.054c4.89,0,9.645,1.052,14.024,3.039c-4.885,8.392-7.461,17.847-7.496,27.73  c-0.011,3.072,2.224,5.808,5.275,6.165c3.637,0.426,6.725-2.405,6.725-5.957c0-0.097,0-0.193,0.001-0.289  c0.118-18.449,12.452-34.612,30.039-40.188C215.044,12.74,219.736,12,224.525,12c22.67,0,41.747,16.663,45.475,38.384  c-21.179-3.128-41.754,10.261-47.131,31.415c-0.773,3.04,0.856,6.31,3.826,7.318c3.369,1.144,6.926-0.844,7.769-4.225  c4.451-17.853,23.992-28.048,41.639-20.386c4.329,1.88,8.168,4.794,11.143,8.458c6.154,7.58,8.284,17.208,6.026,26.443  c-0.755,3.087,0.954,6.367,3.988,7.314c0.603,0.188,1.209,0.277,1.804,0.277c2.69,0,5.137-1.822,5.817-4.55  c2.732-10.96,1.034-22.328-4.784-32.009c-2.675-4.452-6.081-8.293-10.038-11.42c1.92-0.333,3.87-0.516,5.83-0.516  c17.726,0,32.306,13.31,33.889,30.95c0.27,3.007,2.696,5.309,5.714,5.385c10.531,0.264,18.793,8.745,18.793,19.271  C354.286,122.899,348.353,130.576,339.859,132.778z"
   id="path2"
   style="fill:#fff04a;fill-opacity:1" />
<g
   id="g4">
</g>
<g
   id="g6">
</g>
<g
   id="g8">
</g>
<g
   id="g10">
</g>
<g
   id="g12">
</g>
<g
   id="g14">
</g>
<g
   id="g16">
</g>
<g
   id="g18">
</g>
<g
   id="g20">
</g>
<g
   id="g22">
</g>
<g
   id="g24">
</g>
<g
   id="g26">
</g>
<g
   id="g28">
</g>
<g
   id="g30">
</g>
<g
   id="g32">
</g>
</svg>