<?xml version="1.0" encoding="utf-8"?>
<!-- Generator: Adobe Illustrator 16.0.0, SVG Export Plug-In . SVG Version: 6.00 Build 0)  -->
<!DOCTYPE svg PUBLIC "-//W3C//DTD SVG 1.1//EN" "http://www.w3.org/Graphics/SVG/1.1/DTD/svg11.dtd">
<svg version="1.1" id="Layer_1" xmlns="http://www.w3.org/2000/svg" xmlns:xlink="http://www.w3.org/1999/xlink" x="0px" y="0px"
	 width="841.89px" height="595.28px" viewBox="0 0 841.89 595.28" enable-background="new 0 0 841.89 595.28" xml:space="preserve">
<g>
	<path fill-rule="evenodd" clip-rule="evenodd" fill="#FFFFFF" d="M187.598,63.493c149.333,0,298.667,0,448,0
		c0,149.334,0,298.667,0,448c-149.333,0-298.667,0-448,0C187.598,362.16,187.598,212.827,187.598,63.493z M444.605,453.743
		c3.032,0,6.065,0,9.103,0c0-3.401,0-6.224,0-9.417c-3.209,0-6.174,0-9.141,0c0-3.206,0-6.412,0-9.758
		c5.779,0,11.177-0.068,16.572,0.037c1.86,0.035,2.445-0.598,2.369-2.411c-0.102-2.319,0.053-4.648,0.099-6.974
		c3.016,0,6.031,0,9.212,0c0-3.326,0-6.129,0-9.455c-3.181,0-6.196,0-9.212,0c0-6.369,0-12.736,0-19.104c3.221,0,6.44,0,9.661,0
		c0.045,2.321,0.197,4.647,0.101,6.962c-0.075,1.795,0.474,2.529,2.352,2.417c2.29-0.137,4.592-0.032,7.04-0.032
		c0.066,1.242,0.152,2.148,0.154,3.053c0.016,4.465,0.117,8.932-0.039,13.391c-0.075,2.142,0.659,2.764,2.711,2.639
		c2.218-0.137,4.455,0.048,6.684,0.093c0,3.222,0,6.44,0,9.661c-6.197,0-12.396,0-18.639,0c0,3.375,0,6.194,0,9.322
		c3.156,0,6.089,0,9.418,0c0,6.474,0,12.638,0,18.773c3.164,0,5.916,0,9.076,0c0-3.18,0-6.184,0-9.333
		c2.733,0,5.059-0.072,7.375,0.025c1.604,0.067,2.117-0.565,2.078-2.12c-0.061-2.414,0.063-4.834,0.107-7.25
		c3.221,0,6.441,0,9.662,0c0,6.203,0,12.408,0,18.621c3.4,0,6.225,0,9.418,0c0-6.382,0-12.521,0-18.66c3.032,0,6.066,0,9.41,0
		c0-3.506,0-6.441,0-9.686c3.246,0,6.184,0,9.527,0c0-3.313,0-6.319,0-9.318c6.629,0,12.837,0,19.189,0c0,9.614,0,19.061,0,28.584
		c-3.297,0-6.4,0-9.818,0c0-3.145,0-6.08,0-9.078c-3.146,0-5.969,0-9.105,0c0,3.154,0,6.092,0,9.334c-3.247,0-6.186,0-9.239,0
		c0,3.145,0,5.967,0,8.701c0.372,0.162,0.54,0.297,0.706,0.299c15.293,0.027,30.586,0.135,45.877,0.006
		c4.682-0.04,8.826-4.246,9.407-9.129c-2.95,0-5.869,0-8.764,0c0-6.639,0-12.914,0-19.504c3.176,0,6.11,0,9.025,0
		c0-9.486,0-18.652,0-28.134c-3.181,0-6.114,0-9.357,0c0-3.25,0-6.185,0-9.427c-6.419,0-12.524,0-18.817,0c0-3.451,0-6.59,0-9.73
		c3.014,0,6.029,0,9.559,0c0-3.527,0-6.543,0-9.559c3.209,0,6.418,0,9.932,0c0,3.327,0,6.262,0,9.211c3.077,0,5.834,0,8.734,0
		c0-6.17,0-12.164,0-18.476c-3.124,0-6.063,0-9.401,0c0-9.657,0-19.004,0-28.655c-3.345,0-6.278,0-9.521,0c0-3.25,0-6.186,0-9.178
		c-6.315,0-12.31,0-18.62,0c0,3.156,0,6.092,0,9.071c-3.429,0-6.531,0-9.949,0c0-3.153,0-6.088,0-9.329c-6.42,0-12.525,0-18.813,0
		c0-6.625,0-12.936,0-19.245c3.016,0,6.031,0,9.211,0c0-3.326,0-6.13,0-9.456c-3.18,0-6.195,0-9.211,0c0-9.543,0-19.086,0-28.939
		c3.293,0,6.225,0,9.52,0c0-3.276,0-6.24,0-9.205c6.33-0.023,12.662-0.045,18.992-0.067c0.072,0.073,0.145,0.147,0.217,0.221
		c0,3.118,0,6.236,0,9.651c-3.227,0-6.153,0-9.221,0c0,3.123,0,5.938,0,9.156c3.178,0,6.176,0,9.329,0
		c0,2.718,0.068,5.035-0.024,7.348c-0.063,1.563,0.496,2.151,2.082,2.105c2.409-0.068,4.824,0.049,7.239,0.088
		c0,6.381,0,12.762,0,19.455c-6.356,0-12.464,0-18.57,0c0,3.152,0,5.975,0,8.814c9.353,0,18.456,0,27.976,0c0-3.17,0-6.178,0-9.486
		c3.352,0,6.289,0,9.188,0c0-6.32,0-12.316,0-18.695c-6.4,0-12.543,0-18.686,0c0-6.309,0-12.615,0-19.332c6.416,0,12.59,0,19.069,0
		c0-3.346,0-6.279,0-9.521c3.249,0,6.183,0,9.163,0c0-3.145,0-5.967,0-9.099c-6.33,0-12.436,0-18.586,0c0-3.422,0-6.525,0-9.941
		c3.15,0,6.086,0,9.066,0c0-3.146,0-5.967,0-9.154c-6.364,0-12.5,0-18.636,0c0-3.202,0-6.404,0-9.893c6.388,0,12.481,0,18.665,0
		c0-6.28,0-12.26,0-18.647c-3.191,0-6.191,0-9.205,0c0-3.469,0-6.53,0.001-9.593c3.037,0,6.075,0,9.181,0c0-3.444,0-6.268,0-9.076
		c-3.059,0-5.884,0-9.094,0c0,3.226,0,6.196,0,9.167c-2.413,0.033-4.83,0.143-7.24,0.071c-1.578-0.047-2.155,0.522-2.094,2.098
		c0.094,2.381,0.025,4.77,0.025,7.314c-3.498,0-6.629,0-9.76,0c0-3.015,0-6.03,0-9.559c-3.527,0-6.543,0-9.558,0
		c0-3.033,0-6.066,0-9.104c-6.571,0-12.564,0-18.937,0c0,3.208,0,6.175,0,9.142c-3.195,0-6.391,0-9.586,0c0-3.033,0-6.067,0-9.493
		c-9.908,0-19.244,0-28.619,0c0-3.468,0-6.533,0.001-9.601c3.036,0,6.075,0,9.18,0c0-3.444,0-6.268,0-9.076
		c-3.059,0-5.884,0-9.092,0c0,3.226,0,6.196,0,9.167c-3.139,0-6.275,0-9.39,0c-0.148-0.505-0.29-0.764-0.29-1.021
		c0.022-15.573,0.059-31.146,0.093-46.719c6.2,0,12.398,0,19.008,0c0-3.552,0-6.554,0-9.693c5.811,0,11.207,0.05,16.601-0.056
		c0.779-0.015,2.169-0.725,2.21-1.207c0.223-2.542,0.104-5.115,0.104-7.6c-15.981,0-31.474,0-47.34,0c0,3.208,0,6.173,0,9.138
		c-3.035,0-6.071,0-9.419,0c0,3.51,0,6.449,0,9.43c-6.602,0-12.88,0-19.127,0c0-3.335,0-6.441,0-9.859c3.186,0,6.123,0,8.998,0
		c0-3.152,0-5.975,0-8.76c-6.201,0-12.13,0-18.378,0c0,6.299,0,12.409,0,18.708c-3.459,0-6.6,0-9.739,0c0-6.2,0-12.4,0-18.703
		c-9.718,0-18.875,0-28.322,0c0,2.411,0.072,4.628-0.024,6.838c-0.07,1.586,0.529,2.155,2.103,2.093
		c2.384-0.094,4.776-0.024,7.268-0.024c0,3.521,0,6.659,0,9.796c-6.313,0-12.626,0-19.356,0c0-6.364,0-12.543,0-18.726
		c-6.352,0-12.283,0-18.631,0c0,6.347,0,12.526,0,18.748c-3.488,0-6.558,0-9.629-0.002c0-3.018,0-6.036,0-9.226
		c-3.367,0-6.173,0-9.151,0c-0.148,3.171-0.29,6.186-0.431,9.201c-6.338,0.022-12.677,0.044-19.016,0.064
		c0.008-3.253,0.017-6.505,0.024-9.758c0.925-0.032,1.849-0.09,2.774-0.092c6.721-0.019,6.721-0.015,6.538-6.766
		c-0.005-0.186-0.021-0.373-0.001-0.556c0.161-1.573-0.779-2.027-2.051-1.764c-2.333,0.483-5.104-1.372-7,1.242
		c-0.267,0.367-0.049,1.085-0.058,1.641c-0.037,2.128-0.075,4.257-0.114,6.388c-3.019,0-6.037,0-9.226,0c0,3.367,0,6.174,0,9.15
		c3.171,0.149,6.187,0.29,9.201,0.431c0.047,2.411,0.178,4.824,0.112,7.232c-0.044,1.608,0.588,2.085,2.127,2.062
		c4.829-0.068,9.66-0.073,14.488,0.002c1.601,0.025,2.115-0.574,2.067-2.121c-0.074-2.411,0.023-4.826,0.051-7.241
		c3.252,0.008,6.505,0.016,9.757,0.025c0,9.484,0,18.969,0,28.552c-3.372,0-6.477,0-9.901,0c0-3.14,0-6.078,0-9.086
		c-6.321,0-12.318,0-18.696,0c0,3.187,0,6.154,0,9.123c-3.027,0-6.054,0-9.385,0c0,1.638,0.006,2.729-0.001,3.821
		c-0.056,8.259-0.115,16.518-0.172,24.777c-12.576,0-25.152,0-38.08,0c0,3.603,0,6.562,0,9.52c-9.375,0-18.751,0-28.144,0
		c0,3.395,0,6.217,0,9.353c3.173,0,6.108,0,9.042,0c0,9.769,0,19.215,0,28.601c-3.345,0-6.45,0-9.86,0c0-6.364,0-12.472,0-18.609
		c-3.076,0-5.833,0-8.755,0c0,12.507,0,24.844,0,37.6c3.182,0,6.192,0,9.496,0c0,3.352,0,6.288,0,9.593c3.285,0,6.252,0,9.22,0
		c0,3.206,0,6.412,0,9.757c-5.778,0-11.175,0.013-16.571-0.008c-1.295-0.006-2.366-0.034-2.357,1.82
		c0.052,11.361-0.001,22.723,0.104,34.084c0.006,0.594,1.086,1.627,1.741,1.689c2.492,0.243,5.014,0.172,7.525,0.219
		c0,3.027,0,6.054,0,9.194c6.534,0,12.51,0,18.802,0c0-1.276-0.006-2.365,0.001-3.455c0.056-8.26,0.114-16.52,0.171-24.78
		c3.14,0,6.28,0,9.834,0c0,9.537,0,18.888,0,28.543c3.35,0,6.285,0,9.196,0c0,3.432,0,6.537,0,9.953c-9.523,0-18.803,0-28.395,0
		c0,3.25,0,6.187,0,9.432c-3.25,0-6.188,0-9.533,0c0,3.316,0,6.324,0,9.631c-3.355,0-6.291,0-9.254,0c0,3.081,0,5.838,0,9.053
		c6.292,0,12.418,0,18.544,0c0.072,0.073,0.145,0.146,0.217,0.221c0,2.952,0,5.905,0,9.264c6.624,0,12.799,0,19.272,0
		c0,6.514,0,12.619,0,19.02c12.755,0,25.199,0,38.043,0c0,12.813,0,25.326,0,37.855c3.165,0,5.92,0,9.087,0
		c0-6.338,0-12.514,0-18.604c6.691,0,12.966,0,19.271,0c0,9.668,0,19.077-0.001,28.486c-6.199,0-12.398,0-18.728,0
		c0,6.574,0,12.563,0,18.852c2.404,0,4.619-0.071,6.827,0.023c1.568,0.067,2.173-0.493,2.109-2.086
		c-0.096-2.386-0.024-4.778-0.024-7.57c3.363,0,6.368,0,9.729,0c0-3.379,0-6.346,0-9.309c3.129,0,6.259,0,9.723,0
		c0,2.521,0.105,4.824-0.033,7.112c-0.115,1.886,0.637,2.417,2.421,2.345c2.314-0.096,4.638,0.055,6.958,0.1
		c0,3.033,0,6.066,0,9.496c6.734,0,12.905,0,19.373,0c0,3.338,0,6.27,0,9.171c12.642,0,24.967,0,37.645,0c0-6.366,0-12.497,0-18.628
		c3.207-0.014,6.415-0.025,9.624-0.039c0.057,2.391,0.209,4.783,0.141,7.17c-0.047,1.662,0.482,2.311,2.202,2.248
		c2.389-0.088,4.784,0.057,7.177,0.103c0,3.015,0,6.03,0,9.211c3.326,0,6.129,0,9.455,0
		C444.605,459.773,444.605,456.758,444.605,453.743z M501.754,149.282c-6.2,0-12.399,0-18.577,0c0,3.384,0,6.207,0,9.457
		c6.385,0,12.516,0,18.646,0c0.047,4.083,0.12,8.166,0.133,12.25c0.022,6.916,0.004,6.865,7.078,6.578
		c1.59-0.064,2.085-0.592,2.063-2.134c-0.071-4.829-0.074-9.66,0.001-14.489c0.025-1.6-0.572-2.116-2.12-2.069
		c-2.412,0.074-4.827-0.022-7.242-0.05c-0.023-3.21-0.046-6.421-0.069-9.633c3.037,0,6.074,0,9.18,0c0-3.444,0-6.268,0-9.075
		c-3.058,0-5.884,0-9.093,0C501.754,143.34,501.754,146.311,501.754,149.282z M521.188,111.44c0,22.055,0,43.906,0,65.893
		c22.034,0,43.887,0,65.854,0c0.075-0.814,0.182-1.446,0.182-2.078c0.01-17.531,0.016-35.064-0.01-52.596
		c-0.001-0.913-0.15-1.86-0.42-2.733c-1.676-5.454-6.408-8.615-12.934-8.622c-16.6-0.016-33.199-0.007-49.798,0
		C523.156,111.305,522.249,111.388,521.188,111.44z M235.672,397.063c-0.142,0.54-0.229,0.72-0.23,0.899
		c-0.016,17.624-0.218,35.253,0.05,52.874c0.124,8.096,6.06,12.498,12.912,12.383c16.595-0.278,33.197-0.09,49.796-0.09
		c1.072,0,2.145,0,3.181,0c0-22.332,0-44.183,0-66.066C279.348,397.063,257.563,397.063,235.672,397.063z M235.403,177.292
		c22.285,0,44.145,0,65.97,0c0-22.097,0-43.957,0-65.83c-0.623-0.072-0.991-0.151-1.358-0.152
		c-17.169-0.008-34.338-0.073-51.506,0.07c-2.229,0.019-4.64,0.756-6.634,1.798c-5.043,2.633-6.475,7.351-6.474,12.692
		c0.004,16.049,0.002,32.098,0.002,48.147C235.403,175.031,235.403,176.044,235.403,177.292z M263.552,386.877
		c0-2.192-0.137-4.137,0.036-6.055c0.205-2.273-0.511-3.068-2.909-3.02c-7.457,0.152-14.919,0.051-22.38,0.063
		c-0.893,0.002-1.787,0.104-2.639,0.158c0,3.125,0,5.949,0,8.854C244.949,386.877,253.98,386.877,263.552,386.877z M349.069,454.205
		c-3.118,0-5.872,0-8.735,0c0,3.01,0,5.83,0,8.688c3.037,0,5.858,0,8.735,0C349.069,459.902,349.069,457.147,349.069,454.205z
		 M464.066,454.177c0,3.114,0,5.868,0,8.745c3.005,0,5.825,0,8.695,0c0-3.033,0-5.855,0-8.745
		C469.772,454.177,467.019,454.177,464.066,454.177z"/>
	<path fill-rule="evenodd" clip-rule="evenodd" fill="#B8CF76" d="M340.009,434.754c0-9.407,0-18.816,0-28.484
		c-6.305,0-12.58,0-19.271,0c0,6.09,0,12.266,0,18.604c-3.167,0-5.922,0-9.087,0c0-12.529,0-25.042,0-37.855
		c-12.844,0-25.289,0-38.043,0c0-6.4,0-12.506,0-19.02c-6.474,0-12.649,0-19.272,0c0-3.358,0-6.312,0-9.264c3.123,0,6.245,0,9.41,0
		c0-3.42,0-6.518,0-9.613c-3.318,0-6.416,0-9.626,0c0,3.285,0,6.338,0,9.393c-6.126,0-12.252,0-18.544,0c0-3.215,0-5.972,0-9.053
		c2.963,0,5.899,0,9.254,0c0-3.307,0-6.314,0-9.631c3.345,0,6.283,0,9.533,0c0-3.245,0-6.182,0-9.432c9.592,0,18.871,0,28.395,0
		c0-3.416,0-6.521,0-9.953c-2.911,0-5.847,0-9.196,0c0-9.655,0-19.006,0-28.543c-3.554,0-6.694,0-9.834,0l0.069,0.107
		c0-3.205,0-6.41,0-9.582c-3.382,0-6.417,0-9.593,0c0,3.311,0,6.446,0,9.582l0.073-0.073c-3.188,0-6.375,0-9.593,0
		c0,6.569,0,12.841,0,19.113l0.069-0.106c-2.511-0.047-5.033,0.024-7.525-0.219c-0.655-0.063-1.735-1.096-1.741-1.689
		c-0.104-11.361-0.051-22.723-0.104-34.084c-0.009-1.854,1.062-1.826,2.357-1.82c5.396,0.021,10.792,0.008,16.571,0.008
		c0-3.346,0-6.552,0-9.757l-0.107,0.068c3.03,0,6.06,0,9.395,0c0,3.52,0,6.455,0,9.789c3.308,0,6.313,0,9.609,0
		c0,3.344,0,6.275,0,9.174c3.423,0,6.524,0,9.798,0c0-5.449,0.11-10.659-0.051-15.861c-0.071-2.302,0.584-3.062,2.945-2.985
		c5.272,0.17,10.555,0.053,15.948,0.053c0-3.454,0-6.554,0-9.968c-3.122,0-6.057,0-9.427,0c0-3.258,0-6.209,0-9.159
		c3.125,0,6.251,0,9.397,0c0-3.432,0-6.531,0-9.755c-3.282,0-6.339,0-9.396,0c0-3.013,0-6.028,0-9.336c3.563,0,6.489,0,9.519,0
		c0-3.365,0-6.417,0-9.469c2.957,0,5.913,0,9.283,0c0,3.424,0,6.434,0,9.744c3.352,0,6.289,0,9.621,0c0,3.283,0,6.249,0,9.215
		l0.073-0.073c-3.203,0-6.405,0-9.528,0c0,16.105,0,31.871,0,47.737c6.453,0,12.673,0,18.894,0c0,3.106,0,6.212,0,9.319
		c-3.123,0-6.246,0-9.671,0c0,3.244,0,6.175,0,9.205c-3.134,0-5.952,0-9.08,0c0-3.131,0-6.065,0-9.127c-6.58,0-12.845,0-19.213,0
		c0,3.285,0,6.383,0,9.793c3.125,0,6.058,0,9.422,0c0,3.254,0,6.202,0,9.151c-3.125,0-6.249,0-9.4,0c0,3.427,0,6.525,0,9.738
		c3.276,0,6.33,0,9.383,0c0.007,3.1,0.014,6.198,0.021,9.298c-3.099,0-6.197,0-9.541,0c0,3.346,0,6.443,0,9.541
		c-6.291,0-12.582,0-18.906,0c0,6.582,0,12.85,0,19.242c3.274,0,6.331,0,9.386,0c0,6.284,0,12.569,0,18.951
		c6.556,0,12.817,0,19.154,0c0-3.293,0-6.389,0-9.791c-3.13,0-6.061,0-9.416,0c0-3.25,0-6.197,0-9.145c3.125,0,6.251,0,9.397,0
		c0-3.432,0-6.531,0-9.754c-3.282,0-6.339,0-9.396,0c-0.001-3.094-0.003-6.188-0.004-9.281c3.098,0,6.197,0,9.542,0
		c0-3.346,0-6.443,0-9.543c3.1,0.006,6.199,0.012,9.299,0.018c0,6.297,0,12.596,0,19.024c3.386,0,6.445,0,9.504,0
		c0,2.954,0,5.909,0,9.274c-3.417,0-6.423,0-9.348,0c0,6.694,0,12.969,0,19.209c6.467,0,12.674,0,19.297,0c0-3.172,0-6.176,0-9.481
		c3.349,0,6.283,0,9.326,0c0-9.72,0-19.12,0-28.521c3.12,0,6.24,0,9.658,0c0-3.231,0-6.161,0-9.22c3.125,0,5.94,0,9.162,0
		c0,3.182,0,6.184,0,9.217c9.786,0,19.163,0,28.541,0c0,3.098,0,6.196,0,9.539c3.345,0,6.443,0,9.541,0
		c-0.006,3.101-0.012,6.201-0.018,9.303c-3.129,0-6.258,0-9.357,0c0,6.621,0,12.9,0,19.494c3.184,0,6.122,0,9.003,0
		c0,3.152,0,5.975,0,9.112c-3.2,0-6.136,0-9.085,0c0,6.538,0,12.751,0,19.103c3.274,0,6.379,0,9.805,0c0-3.125,0-6.063,0-9.411
		c3.315,0,6.327,0,9.295,0c0-9.808,0-19.193,0-28.899c-3.111,0-6.049,0-9.445,0c0-3.268,0-6.222,0-9.177c3.125,0,6.25,0,9.406,0
		c0-3.429,0-6.528,0-9.739c-3.274,0-6.328,0-9.381,0c0.026-2.129,0.213-4.272,0-6.377c-0.085-0.84-0.946-2.145-1.642-2.281
		c-2.592-0.51-5.261-0.622-7.901-0.883c-0.519-1.033-0.763-2.565-1.597-3.021c-10.281-5.616-18.202-13.508-23.542-23.939
		c-0.85-1.662-1.888-2.088-3.821-1.175c0,2.866,0,5.801,0,8.781c-6.312,0-12.303,0-18.604,0c0-6.325,0-12.429,0-18.841
		c-3.239,0-6.176,0-9.559,0c0-3.262,0-6.213,0-9.164c6.303,0,12.606,0,19.043,0c0-9.752,0-19.158,0-28.565
		c3.524,0.028,7.049,0.079,10.573,0.064c0.606-0.002,1.52-0.084,1.766-0.467c1.91-2.972,3.691-6.027,5.69-9.351
		c-6.358,0-12.193,0-18.028,0c0-3.013,0-6.024,0-9.326c3.547,0,6.472,0,9.691,0c0-3.227,0-6.154,0-9.497c3.24,0,6.185,0,9.129,0
		c0,3.116,0,6.23,0,9.603c2.773,0,5.278,0.188,7.722-0.109c0.785-0.095,1.924-1.42,2.016-2.278c0.255-2.378,0.044-4.806,0.017-7.214
		c3.094-0.001,6.188-0.003,9.282-0.004c0,0.837,0,1.675,0,2.888c2.346-0.995,4.124-1.75,5.903-2.505
		c-0.059-0.199-0.117-0.399-0.176-0.599c-1.835,0-3.671,0-5.507,0c0-3.129,0-6.258,0-9.519c-3.395,0-6.457,0-9.518,0
		c-0.021-3.146-0.043-6.292-0.065-9.439l-0.073,0.073c3.209,0,6.418,0,9.935,0c0-3.291,0-6.227,0-9.469c3.252,0,6.188,0,9.259,0
		c0-3.382,0-6.444,0-9.506c2.948,0,5.897,0,9.25,0c0,3.431,0,6.43,0,9.728c3.336,0,6.266,0,9.466,0c0,2.521-0.073,4.739,0.024,6.947
		c0.07,1.594-0.547,2.144-2.109,2.082c-2.383-0.093-4.773-0.024-7.223-0.024c0,3.487,0,6.586,0,9.992c3.134,0,6.066,0,9.028,0
		c0.128,0.645,0.242,0.994,0.263,1.348c0.307,5.366,0.289,5.471,5.434,6.28c4.549,0.715,9.14,1.162,13.713,1.727
		c0.193,0.943,0.066,2.371,0.635,2.748c2.832,1.875,5.846,3.473,9.119,5.354c0-2.941,0-5.521,0-8.101c6.3,0,12.599,0,19.213,0
		c0-3.264,0-6.2,0-9.185c3.148,0,5.972,0,9.193,0c0,6.366,0,12.502,0,18.641l0.072-0.074c-6.357,0-12.716,0-19.264,0
		c0,2.506-0.305,4.785,0.127,6.914c0.221,1.085,1.736,2.674,2.718,2.712c5.464,0.213,10.944,0.021,16.419-0.033
		c0,0-0.072-0.074-0.072-0.072c0,6.207,0,12.414,0,18.949c-3.068,0-5.533,0-8.349,0c3.351,13.258,2.233,25.825-3.274,38.186
		c4.158,0,7.904,0,11.968,0c0-3.159,0-6.095,0-9.053c9.493,0,18.664,0,28.153,0c0,6.346,0,12.456,0,18.557c3.432,0,6.539,0,9.958,0
		c0-3.176,0-6.111,0-9.446c3.285,0,6.251,0,9.216,0l-0.105-0.068c0,6.31,0,12.62,0,19.245c6.287,0,12.393,0,18.813,0
		c0,3.241,0,6.176,0,9.329c3.418,0,6.521,0,9.949,0c0-2.979,0-5.915,0-9.071c6.311,0,12.305,0,18.62,0c0,2.992,0,5.928,0,9.178
		c3.243,0,6.177,0,9.521,0c0,9.651,0,18.998,0,28.655c3.338,0,6.277,0,9.401,0c0,6.312,0,12.306,0,18.476c-2.9,0-5.657,0-8.734,0
		c0-2.949,0-5.884,0-9.211c-3.514,0-6.723,0-9.932,0l0.066,0.107c0-9.541,0-19.08,0-28.914c-12.754,0-25.191,0-37.939,0
		c0-3.223,0-6.158,0-9.211c-3.419,0-6.52,0-9.935,0c0,3.119,0,6.055,0,9.428c-3.261,0-6.212,0-9.163,0c0-3.097,0-6.195,0-9.537
		c-3.34,0-6.439,0-9.537,0c0-3.123,0-6.246,0-9.385c-6.59,0-12.855,0-19.242,0c0,3.275,0,6.33,0,9.386c-3.105,0-6.211,0-9.317,0
		c0-3.127,0-6.255,0-9.503c-3.387,0-6.444,0-9.503,0c0-3.111,0-6.223,0-9.623c-2.201,0-4.123,0.018-6.043-0.004
		c-2.58-0.031-3.626,1.531-3.766,3.803c-0.117,1.933,0.025,3.881,0.053,5.824c-2.789,0.291-5.82-0.006-8.308,1.02
		c-3.292,1.355-6.21,3.672-9.175,5.735c-0.762,0.53-1.525,1.64-1.567,2.517c-0.153,3.243-0.007,6.5,0.026,9.751
		c-3.099,0.007-6.197,0.014-9.298,0.021c0-2.568,0-5.138,0-7.936c-3.094,0.453-5.911,0.811-8.7,1.324
		c-0.438,0.081-1.033,0.84-1.067,1.322c-0.127,1.796-0.052,3.607-0.052,5.506c3.502,0,6.55,0,9.598,0
		c-0.006,3.1-0.013,6.2-0.019,9.301c-3.126,0-6.251,0-9.395,0c0,19.278,0,38.229,0,57.189c3.321,0,6.423,0,9.823,0
		c0-9.504,0-18.775,0-28.355c3.233,0,6.169,0,9.218,0c0-3.422,0-6.523,0-9.939c-3.125,0-6.06,0-9.431,0c0-6.434,0-12.553,0-18.673
		c3.102-0.007,6.204-0.015,9.306-0.021c0,3.125,0,6.25,0,9.396c3.431,0,6.529,0,9.754,0c0-3.283,0-6.34,0-9.396
		c6.274,0.005,12.548,0.01,18.822,0.016c0.021,6.319,0.042,12.64,0.064,18.959l0.073-0.072c-6.376,0-12.752,0-19.103,0
		c0,6.555,0,12.762,0,19.112c6.484,0,12.793,0,19.103,0l-0.107-0.068c0,6.368,0,12.735,0,19.104l0.106-0.068
		c-3.152-0.027-6.303-0.055-9.456-0.082c0-3.117,0-6.236,0-9.391c-3.403,0-6.498,0-9.597,0c0,3.316,0,6.412,0,9.606
		c3.276,0,6.325,0,9.375,0c0,3.116,0,6.233,0,9.458c3.428,0,6.553,0,9.678,0l-0.106-0.068c-0.046,2.325-0.2,4.654-0.099,6.974
		c0.076,1.813-0.509,2.446-2.369,2.411c-5.396-0.105-10.793-0.037-16.572-0.037c0,3.346,0,6.552,0,9.758l0.106-0.068
		c-3.198,0-6.396,0-9.592,0l0.072,0.072c0-6.375,0-12.75,0-19.105c-6.55,0-12.758,0-19.113,0c0,3.311,0,6.448,0,9.584l0.072-0.071
		c-3.196,0-6.395,0-9.592,0l0.072,0.071c0-6.373,0-12.748,0-19.1c-3.38,0-6.416,0-9.592,0c0,6.486,0,12.793,0,19.1l0.073-0.071
		c-3.021,0-6.043,0-9.456,0c0-3.552,0-6.548,0-9.581c-6.607,0-12.813,0-19.019,0c-0.001-3.107-0.002-6.215-0.003-9.324
		c3.118,0,6.235,0,9.389,0c0-3.402,0-6.496,0-9.596c-3.316,0-6.41,0-9.605,0c0,3.277,0,6.326,0,9.376c-3.126,0-6.253,0-9.4,0
		c0,3.435,0,6.535,0,9.759c3.283,0,6.34,0,9.397,0c0.021,3.146,0.043,6.293,0.064,9.438l0.072-0.071c-3.176,0-6.354,0-9.592,0
		c0,3.374,0,6.482,0,9.593l0.069-0.107c-2.32-0.045-4.644-0.195-6.958-0.1c-1.784,0.072-2.536-0.459-2.421-2.345
		c0.138-2.288,0.033-4.591,0.033-7.112c-3.464,0-6.594,0-9.723,0L340.009,434.754z M349.336,387.291c0,6.289,0,12.58,0,18.901
		c3.413,0,6.513,0,9.921,0c0-3.153,0-6.085,0-9.321c3.239,0,6.172,0,9.507,0c0-3.303,0-6.309,0-9.605c3.34,0,6.272,0,9.203,0
		c0-3.422,0-6.521,0-9.73c-6.459,0-12.684,0-18.91,0c0-2.954,0-5.908,0-9.275c3.455,0,6.463,0,9.771,0c0-3.354,0-6.289,0-9.531
		c3.25,0,6.187,0,9.139,0c0-3.432,0-6.537,0-9.58c-6.514,0-12.792,0-19.383,0c0,3.193,0,6.129,0,9.371c-3.252,0-6.188,0-9.249,0
		c0,6.553,0,12.783,0,19.017c-3.125,0-6.251,0-9.396,0c0,3.432,0,6.531,0,9.755C343.222,387.291,346.28,387.291,349.336,387.291z
		 M412.027,307.234c10.146-0.127,16.842-4.651,21.896-11.948c1.551-2.241,1.178-4.935-0.563-6.327
		c-1.847-1.477-4.106-1.123-6.194,1.007c-0.521,0.53-0.964,1.136-1.438,1.708c-7.029,8.484-17.215,9.045-25.024,1.281
		c-1.707-1.695-3.02-3.779-4.661-5.549c-1.595-1.72-3.599-2.516-5.728-0.994c-2.052,1.465-2.376,3.617-1.148,5.705
		C394.512,301.201,402.103,306.84,412.027,307.234z M422.658,275.258c0.012-0.166,0.027-0.333,0.039-0.498
		c1.488-0.5,3.033-0.875,4.45-1.526c1.871-0.86,2.976-2.353,2.255-4.495c-0.688-2.049-2.349-2.783-4.423-2.566
		c-0.636,0.066-1.302,0.249-1.863,0.547c-3.613,1.912-7.318,3.691-10.734,5.916c-1.174,0.764-2.369,2.803-2.167,4.033
		c0.225,1.385,1.792,3.15,3.168,3.634c3.749,1.319,7.679,2.16,11.583,2.974c2.638,0.55,4.432-0.674,4.88-2.906
		c0.459-2.286-0.989-4.189-3.652-4.688C425.03,275.463,423.838,275.395,422.658,275.258z M482.606,320.471c3.209,0,6.377,0,9.618,0
		c0-3.225,0-6.326,0-9.42c-3.325,0-6.43,0-9.618,0C482.606,314.263,482.606,317.232,482.606,320.471z M301.863,282.504
		c0-3.391,0-6.428,0-9.571c-3.283,0-6.385,0-9.522,0c0,3.31,0,6.413,0,9.571C295.607,282.504,298.644,282.504,301.863,282.504z"/>
	<path fill-rule="evenodd" clip-rule="evenodd" fill="#B8CF76" d="M492.271,425.183c-2.229-0.045-4.466-0.229-6.684-0.093
		c-2.052,0.125-2.786-0.497-2.711-2.639c0.156-4.459,0.055-8.926,0.039-13.391c-0.002-0.904-0.088-1.811-0.154-3.053
		c-2.448,0-4.75-0.104-7.04,0.032c-1.878,0.112-2.427-0.622-2.352-2.417c0.097-2.314-0.056-4.641-0.101-6.962l-0.107,0.068
		c6.196,0,12.392,0,18.895,0c0,3.499,0,6.433,0,9.5c3.414,0,6.514,0,9.707,0c0-6.456,0-12.724,0-19.303c-3.123,0-6.059,0-9.424,0
		c0-3.256,0-6.206,0-9.155c9.494,0,18.988,0,28.576,0c0-3.443,0-6.49,0-9.537c9.48,0.002,18.959,0.005,28.439,0.008l-0.09-0.09
		c0,6.304,0,12.607,0,19.057c3.375,0,6.513,0,9.648,0l-0.105-0.068c0,3.141,0,6.279,0,9.73c6.293,0,12.398,0,18.817,0
		c0,3.242,0,6.177,0,9.427c3.243,0,6.177,0,9.357,0c0,9.481,0,18.647,0,28.134c-2.915,0-5.85,0-9.025,0c0,6.59,0,12.865,0,19.504
		c2.895,0,5.813,0,8.764,0c-0.581,4.883-4.726,9.089-9.407,9.129c-15.291,0.129-30.584,0.021-45.877-0.006
		c-0.166-0.002-0.334-0.137-0.706-0.299c0-2.734,0-5.557,0-8.701c3.054,0,5.992,0,9.239,0c0-3.242,0-6.18,0-9.334
		c3.137,0,5.959,0,9.105,0c0,2.998,0,5.934,0,9.078c3.418,0,6.521,0,9.818,0c0-9.523,0-18.97,0-28.584c-6.353,0-12.561,0-19.189,0
		c0,2.999,0,6.006,0,9.318c-3.344,0-6.281,0-9.527,0c0,3.244,0,6.18,0,9.686c-3.344,0-6.378,0-9.41,0l0.066,0.107
		c0-6.35,0-12.699,0-19.113c-6.547,0-12.83,0-19.111,0l0.072,0.072c0-3.205,0-6.409,0-9.581c-3.381,0-6.416,0-9.592,0
		c0,3.312,0,6.446,0,9.581L492.271,425.183z M539.863,415.783c0-9.738,0-19.121,0-28.609c-9.631,0-19.08,0-28.561,0
		c0,9.656,0,19.105,0,28.609C520.917,415.783,530.299,415.783,539.863,415.783z M549.333,406.164c0,3.393,0,6.43,0,9.568
		c3.285,0,6.389,0,9.52,0c0-3.311,0-6.414,0-9.568C555.586,406.164,552.55,406.164,549.333,406.164z M568.366,415.677
		c0,3.384,0,6.421,0,9.584c3.276,0,6.378,0,9.533,0c0-3.305,0-6.407,0-9.584C574.64,415.677,571.604,415.677,568.366,415.677z"/>
	<path fill-rule="evenodd" clip-rule="evenodd" fill="#B8CF76" d="M320.948,158.726c0-2.968,0-5.936,0-9.123
		c6.378,0,12.375,0,18.696,0c0,3.008,0,5.946,0,9.086c3.424,0,6.529,0,9.901,0c0-9.583,0-19.067,0-28.552l-0.089,0.088
		c3.069,0,6.139,0,9.627,0c0-6.222,0-12.401,0-18.748c6.348,0,12.279,0,18.631,0c0,6.183,0,12.362,0,18.726
		c6.73,0,13.043,0,19.356,0l-0.069-0.107c0,3.027,0,6.054,0,9.471c-6.743,0-12.91,0-19.03,0c0,3.435,0,6.467,0,9.905
		c3.165,0,6.166,0,9.168,0c0,3.165,0,5.916,0,9.063c-6.325,0-12.492,0-18.759,0c0,3.45,0,6.502,0,9.556c-3.123,0-6.245,0-9.41,0
		c0,3.421,0,6.517,0,9.614c3.319,0,6.416,0,9.627,0c0-3.285,0-6.339,0-9.393c3.013,0,6.026,0,9.335,0c0,3.565,0,6.491,0,9.521
		c3.364,0,6.416,0,9.468,0c0,3.106,0,6.212,0,9.318c-3.121,0-6.241,0-9.661,0c0,3.234,0,6.164,0,9.523c-3.247,0-6.193,0-9.141,0
		c0-3.13,0-6.261,0-9.699c-6.444,0-12.551,0-19.065,0c0-6.485,0-12.664,0-18.777c-3.458,0-6.496,0-9.609,0
		c0,9.639,0,19.086,0,28.852c3.143,0,6.079,0,9.322,0c0,3.247,0,6.185,0,9.254c3.425,0,6.529,0,9.951,0c0-3.121,0-6.059,0-9.412
		c3.267,0,6.224,0,9.18,0c0,3.11,0,6.22,0,9.718c3.264,0,6.256,0,9.583,0c0,3.341,0,6.291,0,9.24l0.073-0.073
		c-12.478-0.032-24.956-0.066-37.433-0.081c-0.239,0-0.478,0.223-0.627,0.297c0,3.201,0,6.305,0,9.712c3.194,0,6.128,0,8.99,0
		c0,3.143,0,5.962,0,9.09c-3.198,0-6.13,0-9.364,0c0,3.249,0,6.181,0,9.138c-6.31,0-12.299,0-18.686,0c0-3.192,0-6.155,0-9.118
		l-0.073,0.073c3.208,0,6.416,0,9.587,0c0-25.596,0-50.837,0-76.233c-3.311,0-6.449,0-9.587,0L320.948,158.726z M368.519,139.637
		c-3.267,0-6.369,0-9.553,0c0,3.294,0,6.396,0,9.503c3.32,0,6.423,0,9.553,0C368.519,145.864,368.519,142.828,368.519,139.637z"/>
	<path fill-rule="evenodd" clip-rule="evenodd" fill="#B8CF76" d="M511.245,196.844c3.195,0,6.391,0,9.586,0l-0.07-0.107
		c0,9.545,0,19.09,0,28.947c3.264,0,6.197,0,9.521,0c0,3.278,0,6.242,0,9.206l0.071-0.073c-3.205,0-6.413,0-9.585,0
		c0,9.728,0,19.106,0,28.633c3.312,0,6.448,0,9.585,0l-0.106-0.068c0,2.964,0,5.928,0,9.205c-3.295,0-6.227,0-9.52,0
		c0,9.854,0,19.396,0,28.939l0.105-0.068c-3.028,0-6.058,0-9.391,0c0-3.518,0-6.451,0-9.77c-9.642,0-18.977,0-28.59,0
		c0-12.828,0-25.26,0-37.831c-3.424,0-6.558,0-9.691,0l0.072,0.074c0-3.198,0-6.396,0-9.594l-0.072,0.074c9.369,0,18.738,0,28.162,0
		c0,3.401,0,6.222,0,9.355c-3.156,0-6.091,0-9.07,0c0,3.422,0,6.524,0,9.938c3.149,0,6.082,0,9.32,0c0,3.241,0,6.177,0,9.241
		c3.421,0,6.521,0,9.71,0c0-12.803,0-25.414,0-38.335c-6.294,0-12.399,0-18.944,0c0-3.256,0-6.207,0-9.159c3.121,0,6.242,0,9.455,0
		c0-6.608,0-12.901,0-19.194l-0.072,0.073c3.177,0,6.354,0,9.592,0c0-3.374,0-6.484,0-9.593L511.245,196.844z"/>
	<path fill-rule="evenodd" clip-rule="evenodd" fill="#B8CF76" d="M416.046,130.204c3.14,0,6.28,0,9.739,0c0-6.3,0-12.409,0-18.708
		c6.248,0,12.177,0,18.378,0c0,2.786,0,5.608,0,8.76c-2.875,0-5.813,0-8.998,0c0,3.418,0,6.524,0,9.859c6.247,0,12.525,0,19.127,0
		c0-2.981,0-5.92,0-9.43c3.348,0,6.384,0,9.419,0l-0.069-0.107c0,3.177,0,6.354,0,9.593c3.373,0,6.484,0,9.593,0l-0.106-0.069
		c-0.034,15.573-0.07,31.146-0.093,46.719c0,0.258,0.142,0.516,0.29,1.021c3.114,0,6.251,0,9.39,0l-0.089-0.09
		c0,3.066,0,6.131,0,9.599c9.375,0,18.711,0,28.619,0c0,3.426,0,6.459,0,9.493l0.068-0.107c-3.176,0-6.354,0-9.592,0
		c0,3.374,0,6.483,0,9.593l0.072-0.073c-3.146-0.022-6.293-0.043-9.438-0.064c0-3.127,0-6.254,0-9.399c-6.605,0-12.875,0-19.276,0
		c0,3.281,0,6.34,0,9.398c-3.132-0.002-6.266-0.004-9.399-0.007l0.089,0.09c0-3.136,0-6.273,0-9.726c-3.185,0-6.123,0-9.512,0
		c0-3.269,0-6.223,0-9.178c3.128,0,6.257,0,9.401,0c0-9.778,0-19.22,0-28.795c-3.281,0-6.341,0-9.4,0
		c-0.001-3.094-0.002-6.188-0.003-9.281c3.122,0,6.245,0,9.409,0c0-3.421,0-6.517,0-9.614c-3.317,0-6.416,0-9.627,0
		c0,3.284,0,6.339,0,9.393c-3.011,0-6.021,0-9.322,0c0-3.547,0-6.47,0-9.401c-3.4,0-6.494,0-9.885,0c0,3.146,0,6.071,0,9.384
		c-3.241,0-6.186,0-9.132,0c0-3.111,0-6.222,0-9.72c-3.263,0-6.252,0-9.586,0c0-3.341,0-6.291,0-9.241L416.046,130.204z"/>
	<path fill-rule="evenodd" clip-rule="evenodd" fill="#B8CF76" d="M521.188,111.44c1.062-0.052,1.969-0.136,2.875-0.137
		c16.599-0.007,33.198-0.016,49.798,0c6.525,0.007,11.258,3.168,12.934,8.622c0.27,0.874,0.419,1.82,0.42,2.733
		c0.025,17.532,0.02,35.065,0.01,52.596c0,0.632-0.106,1.264-0.182,2.078c-21.968,0-43.82,0-65.854,0
		C521.188,155.346,521.188,133.496,521.188,111.44z M530.293,120.563c0,16.083,0,31.813,0,47.651c15.975,0,31.769,0,47.601,0
		c0-16.001,0-31.796,0-47.651C561.936,120.563,546.207,120.563,530.293,120.563z"/>
	<path fill-rule="evenodd" clip-rule="evenodd" fill="#B8CF76" d="M235.672,397.063c21.891,0,43.676,0,65.71,0
		c0,21.884,0,43.734,0,66.066c-1.037,0-2.109,0-3.181,0c-16.6,0-33.202-0.188-49.796,0.09c-6.852,0.115-12.789-4.287-12.912-12.383
		c-0.269-17.621-0.066-35.25-0.05-52.874C235.443,397.782,235.531,397.603,235.672,397.063z M292.371,406.186
		c-16.081,0-31.81,0-47.656,0c0,15.973,0,31.768,0,47.607c15.998,0,31.793,0,47.656,0
		C292.371,437.836,292.371,422.106,292.371,406.186z"/>
	<path fill-rule="evenodd" clip-rule="evenodd" fill="#B8CF76" d="M235.403,177.292c0-1.248,0-2.261,0-3.274
		c0-16.049,0.002-32.099-0.002-48.147c-0.001-5.341,1.431-10.059,6.474-12.692c1.994-1.042,4.405-1.779,6.634-1.798
		c17.168-0.144,34.337-0.078,51.506-0.07c0.367,0,0.735,0.08,1.358,0.152c0,21.874,0,43.733,0,65.83
		C279.547,177.292,257.688,177.292,235.403,177.292z M244.667,168.239c16.083,0,31.813,0,47.65,0c0-15.976,0-31.771,0-47.601
		c-16,0-31.796,0-47.65,0C244.667,136.597,244.667,152.326,244.667,168.239z"/>
	<path fill-rule="evenodd" clip-rule="evenodd" fill="#B8CF76" d="M558.846,234.923c6.136,0,12.271,0,18.636,0
		c0,3.187,0,6.009,0,9.154c-2.98,0-5.916,0-9.066,0c0,3.416,0,6.52,0,9.941c6.15,0,12.256,0,18.586,0c0,3.131,0,5.954,0,9.099
		c-2.98,0-5.914,0-9.163,0c0,3.242,0,6.175,0,9.521c-6.479,0-12.653,0-19.069,0c0,6.717,0,13.023,0,19.332l0.09-0.089
		c-2.412-0.038-4.827-0.155-7.236-0.087c-1.586,0.046-2.145-0.542-2.082-2.105c0.093-2.313,0.024-4.63,0.024-7.348
		c-3.153,0-6.151,0-9.329,0c0-3.219,0-6.033,0-9.156c3.067,0,5.994,0,9.221,0c0-3.415,0-6.533,0-9.651c3.123,0,6.245,0,9.41,0
		c0-3.42,0-6.518,0-9.614c-3.318,0-6.417,0-9.627,0c0,3.285,0,6.339,0,9.394c-6.33,0.022-12.662,0.044-18.992,0.067l0.106,0.068
		c0-9.544,0-19.088,0-28.633l-0.071,0.073c6.371,0,12.742,0,19.111,0l-0.072-0.073c0,3.205,0,6.409,0,9.583c3.381,0,6.416,0,9.592,0
		c0-3.311,0-6.446,0-9.583L558.846,234.923z"/>
	<path fill-rule="evenodd" clip-rule="evenodd" fill="#B8CF76" d="M254.308,263.381c-2.968,0-5.935,0-9.22,0
		c0-3.306,0-6.241,0-9.593c-3.304,0-6.314,0-9.496,0c0-12.756,0-25.092,0-37.6c2.922,0,5.679,0,8.755,0c0,6.138,0,12.245,0,18.609
		c3.411,0,6.516,0,9.86,0c0-9.386,0-18.833,0-28.601c-2.934,0-5.868,0-9.042,0c0-3.136,0-5.958,0-9.353c9.393,0,18.769,0,28.144,0
		l-0.069-0.107c0,6.195,0,12.39,0,18.892c-3.494,0-6.429,0-9.502,0c0,3.414,0,6.512,0,10.024c3.176,0,6.18,0,9.148,0
		c0,3.167,0,5.92,0,9.081c-3.175,0-6.177,0-9.336,0c0,2.73-0.071,5.053,0.024,7.368c0.065,1.586-0.531,2.152-2.103,2.091
		c-2.384-0.095-4.774-0.025-7.271-0.025c0,6.682,0,12.983,0,19.283L254.308,263.381z"/>
	<path fill-rule="evenodd" clip-rule="evenodd" fill="#B8CF76" d="M416.007,444.262c0,6.131,0,12.262,0,18.628
		c-12.677,0-25.002,0-37.645,0c0-2.901,0-5.833,0-9.171c-6.468,0-12.638,0-19.373,0c0-3.43,0-6.463,0-9.496l-0.069,0.107
		c3.177,0,6.354,0,9.592,0c0-3.374,0-6.484,0-9.593l-0.072,0.071c3.034,0,6.067,0,9.412,0c0,3.537,0,6.476,0,9.721
		c3.248,0,6.187,0,9.533,0c0,3.314,0,6.322,0,9.314c3.461,0,6.499,0,9.688,0c0-6.484,0-12.795,0-19.106l-0.073,0.071
		c3.197,0,6.395,0,9.592,0l-0.072-0.071c0,3.177,0,6.354,0,9.593c3.373,0,6.483,0,9.592,0L416.007,444.262z"/>
	<path fill-rule="evenodd" clip-rule="evenodd" fill="#B8CF76" d="M549.325,206.364c3.131,0,6.262,0,9.76,0
		c0-2.545,0.068-4.933-0.025-7.314c-0.062-1.575,0.516-2.145,2.094-2.098c2.41,0.072,4.827-0.038,7.24-0.071l-0.088-0.089
		c0,3.061,0,6.122,0,9.591c3.014,0,6.014,0,9.205,0c0,6.387,0,12.368,0,18.647c-6.184,0-12.277,0-18.665,0c0,3.488,0,6.691,0,9.893
		l0.067-0.106c-3.196,0-6.395,0-9.592,0l0.072,0.073c0-3.199,0-6.396,0-9.761c-1.148,0-1.977,0.004-2.803,0
		c-6.914-0.044-6.864-0.043-6.585-7.064c0.063-1.583,0.574-2.128,2.128-2.069c2.379,0.092,4.764,0.024,7.26,0.024
		c0-3.505,0-6.634,0-9.763L549.325,206.364z"/>
	<path fill-rule="evenodd" clip-rule="evenodd" fill="#B8CF76" d="M463.711,120.684c0-2.965,0-5.93,0-9.138
		c15.866,0,31.358,0,47.34,0c0,2.485,0.118,5.057-0.104,7.6c-0.041,0.481-1.431,1.191-2.21,1.207
		c-5.394,0.105-10.79,0.056-16.601,0.056c0,3.139,0,6.142,0,9.693c-6.609,0-12.808,0-19.008,0l0.106,0.069c0-3.177,0-6.354,0-9.593
		c-3.374,0-6.483,0-9.593,0L463.711,120.684z"/>
	<path fill-rule="evenodd" clip-rule="evenodd" fill="#B8CF76" d="M558.769,291.971c6.143,0,12.285,0,18.686,0
		c0,6.379,0,12.375,0,18.695c-2.898,0-5.836,0-9.188,0c0,3.309,0,6.316,0,9.486c-9.52,0-18.623,0-27.976,0c0-2.84,0-5.662,0-8.814
		c6.106,0,12.214,0,18.57,0c0-6.693,0-13.074-0.001-19.455C558.858,291.882,558.769,291.971,558.769,291.971z"/>
	<path fill-rule="evenodd" clip-rule="evenodd" fill="#B8CF76" d="M273.31,196.844c0-2.958,0-5.917,0-9.52
		c12.928,0,25.504,0,38.08,0l-0.069-0.106c0,3.208,0,6.417,0,9.93c3.287,0,6.223,0,9.178,0c0,3.08,0,5.836,0,9.045
		c-6.293,0-12.418,0-18.543,0c0-3.126,0-6.251,0-9.397c-3.432,0-6.532,0-9.755,0c0,3.282,0,6.339,0,9.396c-3.006,0-6.012,0-9.3,0
		c0-3.522,0-6.442,0-9.455c-3.417,0-6.538,0-9.659,0L273.31,196.844z"/>
	<path fill-rule="evenodd" clip-rule="evenodd" fill="#B8CF76" d="M397.07,130.204c0-3.138,0-6.275,0-9.796
		c-2.492,0-4.884-0.069-7.268,0.024c-1.574,0.062-2.172-0.507-2.103-2.093c0.097-2.21,0.024-4.428,0.024-6.838
		c9.447,0,18.604,0,28.322,0c0,6.303,0,12.503,0,18.703l0.067-0.107c-6.37,0-12.741,0-19.112,0L397.07,130.204z"/>
	<path fill-rule="evenodd" clip-rule="evenodd" fill="#B8CF76" d="M501.687,444.262c-0.045,2.416-0.168,4.836-0.107,7.25
		c0.039,1.555-0.475,2.188-2.078,2.12c-2.316-0.098-4.642-0.025-7.375-0.025c0,3.149,0,6.153,0,9.333c-3.16,0-5.912,0-9.076,0
		c0-6.136,0-12.3,0-18.773c-3.329,0-6.262,0-9.418,0c0-3.128,0-5.947,0-9.322c6.243,0,12.441,0,18.639,0l-0.068-0.106
		c0,3.177,0,6.354,0,9.593c3.372,0,6.482,0,9.592,0L501.687,444.262z"/>
	<path fill-rule="evenodd" clip-rule="evenodd" fill="#B8CF76" d="M263.725,291.902c-0.058,8.261-0.116,16.521-0.171,24.78
		c-0.007,1.09-0.001,2.179-0.001,3.455c-6.292,0-12.269,0-18.802,0c0-3.141,0-6.167,0-9.194l-0.069,0.106c3.188,0,6.375,0,9.593,0
		c0-6.567,0-12.841,0-19.113l-0.073,0.073c3.198,0,6.395,0,9.593,0L263.725,291.902z"/>
	<path fill-rule="evenodd" clip-rule="evenodd" fill="#B8CF76" d="M263.552,386.877c-9.572,0-18.603,0-27.892,0
		c0-2.904,0-5.729,0-8.854c0.852-0.054,1.746-0.156,2.639-0.158c7.46-0.012,14.923,0.09,22.38-0.063
		c2.398-0.049,3.114,0.746,2.909,3.02C263.416,382.74,263.552,384.685,263.552,386.877z"/>
	<path fill-rule="evenodd" clip-rule="evenodd" fill="#B8CF76" d="M311.39,187.324c0.057-8.259,0.116-16.518,0.172-24.777
		c0.007-1.092,0.001-2.183,0.001-3.821c3.332,0,6.358,0,9.385,0l-0.107-0.069c0,9.4,0,18.8,0,28.561c-3.617,0-6.568,0-9.52,0
		L311.39,187.324z"/>
	<path fill-rule="evenodd" clip-rule="evenodd" fill="#B8CF76" d="M339.92,434.666c0,2.963,0,5.93,0,9.309c-3.361,0-6.366,0-9.729,0
		c0,2.792-0.071,5.185,0.024,7.57c0.064,1.593-0.541,2.153-2.109,2.086c-2.208-0.095-4.423-0.023-6.827-0.023
		c0-6.289,0-12.277,0-18.852c6.33,0,12.529,0,18.729,0C340.009,434.754,339.92,434.666,339.92,434.666z"/>
	<path fill-rule="evenodd" clip-rule="evenodd" fill="#B8CF76" d="M520.831,196.844c0-2.967,0-5.934,0-9.142
		c6.372,0,12.365,0,18.937,0c0,3.037,0,6.07,0,9.104l0.106-0.069c-6.371,0-12.742,0-19.113,0L520.831,196.844z"/>
	<path fill-rule="evenodd" clip-rule="evenodd" fill="#B8CF76" d="M473.269,396.661c-3.221,0-6.44,0-9.661,0l0.107,0.068
		c0-6.37,0-12.741,0-19.112l-0.073,0.072c3.014,0,6.029,0,9.52,0c0,6.71,0,12.875,0,19.04L473.269,396.661z"/>
	<path fill-rule="evenodd" clip-rule="evenodd" fill="#B8CF76" d="M501.736,158.826c2.415,0.025,4.83,0.122,7.242,0.047
		c1.548-0.047,2.146,0.469,2.12,2.069c-0.075,4.829-0.072,9.66-0.001,14.489c0.021,1.542-0.474,2.07-2.063,2.134
		c-7.074,0.288-7.056,0.338-7.078-6.578c-0.013-4.083-0.086-8.167-0.133-12.251C501.823,158.736,501.736,158.826,501.736,158.826z"
		/>
	<path fill-rule="evenodd" clip-rule="evenodd" fill="#B8CF76" d="M320.857,130.267c6.338-0.023,12.677-0.045,19.017-0.068
		c0.002,0-0.088-0.085-0.088-0.085c-0.024,2.414-0.122,4.83-0.048,7.24c0.048,1.547-0.467,2.146-2.067,2.121
		c-4.828-0.075-9.659-0.07-14.488-0.002c-1.539,0.023-2.171-0.454-2.127-2.062c0.066-2.408-0.064-4.821-0.112-7.233
		C320.943,130.175,320.857,130.267,320.857,130.267z"/>
	<path fill-rule="evenodd" clip-rule="evenodd" fill="#B8CF76" d="M501.665,149.192c0.025,3.21,0.048,6.421,0.071,9.633
		c0,0.001,0.087-0.089,0.087-0.088c-6.131,0.001-12.262,0.001-18.646,0.001c0-3.25,0-6.073,0-9.457c6.178,0,12.377,0,18.577,0
		L501.665,149.192z"/>
	<path fill-rule="evenodd" clip-rule="evenodd" fill="#B8CF76" d="M520.767,444.223c0,6.139,0,12.278,0,18.66
		c-3.193,0-6.018,0-9.418,0c0-6.213,0-12.418,0-18.621l-0.107,0.068c3.197,0,6.396,0,9.592,0L520.767,444.223z"/>
	<path fill-rule="evenodd" clip-rule="evenodd" fill="#B8CF76" d="M520.728,301.525c3.016,0,6.031,0,9.211,0c0,3.326,0,6.13,0,9.456
		c-3.18,0-6.195,0-9.211,0l0.105,0.068c0-3.198,0-6.396,0-9.593L520.728,301.525z"/>
	<path fill-rule="evenodd" clip-rule="evenodd" fill="#B8CF76" d="M320.969,120.595c0.038-2.128,0.077-4.257,0.113-6.385
		c0.009-0.556-0.208-1.273,0.058-1.641c1.896-2.613,4.667-0.758,7-1.242c1.271-0.263,2.212,0.191,2.051,1.764
		c-0.02,0.183-0.004,0.37,0.001,0.556c0.184,6.75,0.184,6.747-6.538,6.766c-0.925,0.002-1.849,0.06-2.774,0.092L320.969,120.595z"/>
	<path fill-rule="evenodd" clip-rule="evenodd" fill="#B8CF76" d="M320.881,120.505c-0.008,3.253-0.017,6.505-0.024,9.76
		c0,0.002,0.086-0.089,0.086-0.087c-3.014-0.14-6.029-0.281-9.201-0.43c0-2.976,0-5.783,0-9.15c3.189,0,6.208,0,9.227-0.001
		C320.969,120.595,320.881,120.505,320.881,120.505z"/>
	<path fill-rule="evenodd" clip-rule="evenodd" fill="#B8CF76" d="M349.545,130.137c-3.252-0.009-6.505-0.017-9.759-0.024
		c-0.001,0,0.089,0.085,0.087,0.085c0.14-3.014,0.281-6.029,0.43-9.2c2.978,0,5.784,0,9.151,0c0,3.19,0,6.208,0.001,9.227
		C349.456,130.226,349.545,130.137,349.545,130.137z"/>
	<path fill-rule="evenodd" clip-rule="evenodd" fill="#B8CF76" d="M501.754,149.282c0-2.971,0-5.942,0-9.167
		c3.209,0,6.035,0,9.093,0c0,2.807,0,5.631,0,9.075c-3.105,0-6.143,0-9.18,0.001C501.665,149.192,501.754,149.282,501.754,149.282z"
		/>
	<path fill-rule="evenodd" clip-rule="evenodd" fill="#B8CF76" d="M482.715,177.842c0-2.971,0-5.942,0-9.167
		c3.208,0,6.033,0,9.092,0c0,2.808,0,5.632,0,9.076c-3.104,0-6.144,0-9.18,0.001C482.626,177.752,482.715,177.842,482.715,177.842z"
		/>
	<path fill-rule="evenodd" clip-rule="evenodd" fill="#B8CF76" d="M568.394,196.881c0-2.971,0-5.941,0-9.167c3.21,0,6.035,0,9.094,0
		c0,2.808,0,5.632,0,9.076c-3.105,0-6.144,0-9.181,0.001C568.306,196.792,568.394,196.881,568.394,196.881z"/>
	<path fill-rule="evenodd" clip-rule="evenodd" fill="#B8CF76" d="M568.366,377.582c0,3.016,0,6.031,0,9.559
		c-3.529,0-6.545,0-9.559,0l0.105,0.068c0.059-2.479,0.18-4.959,0.146-7.436c-0.018-1.431,0.508-1.955,1.938-1.938
		c2.478,0.033,4.958-0.09,7.436-0.146L568.366,377.582z"/>
	<path fill-rule="evenodd" clip-rule="evenodd" fill="#B8CF76" d="M539.768,196.806c3.015,0,6.03,0,9.558,0c0,3.528,0,6.543,0,9.559
		l0.068-0.107c-2.479-0.057-4.959-0.178-7.436-0.146c-1.432,0.018-1.955-0.507-1.938-1.937c0.033-2.478-0.089-4.958-0.146-7.438
		L539.768,196.806z"/>
	<path fill-rule="evenodd" clip-rule="evenodd" fill="#B8CF76" d="M463.607,415.766c3.016,0,6.031,0,9.212,0
		c0,3.326,0,6.129,0,9.455c-3.181,0-6.196,0-9.212,0l0.106,0.068c0-3.196,0-6.395,0-9.592L463.607,415.766z"/>
	<path fill-rule="evenodd" clip-rule="evenodd" fill="#B8CF76" d="M492.271,434.844c0-3.221,0-6.439,0-9.661l-0.068,0.106
		c3.195,0,6.395,0,9.592,0l-0.072-0.072c0,3.197,0,6.396,0,9.592l0.072-0.071c-3.197,0-6.396,0-9.592,0L492.271,434.844z"/>
	<path fill-rule="evenodd" clip-rule="evenodd" fill="#B8CF76" d="M425.631,444.223c-3.209,0.014-6.417,0.025-9.624,0.039
		l0.106,0.068c0-3.197,0-6.396,0-9.593l-0.072,0.071c2.48,0.059,4.959,0.18,7.438,0.147c1.43-0.019,1.955,0.507,1.936,1.937
		c-0.031,2.478,0.091,4.957,0.147,7.438L425.631,444.223z"/>
	<path fill-rule="evenodd" clip-rule="evenodd" fill="#B8CF76" d="M511.349,444.262c-3.221,0-6.441,0-9.662,0l0.107,0.068
		c0-3.197,0-6.396,0-9.593l-0.072,0.071c2.479,0.059,4.959,0.18,7.438,0.147c1.43-0.019,1.955,0.507,1.936,1.937
		c-0.031,2.478,0.09,4.957,0.146,7.438L511.349,444.262z"/>
	<path fill-rule="evenodd" clip-rule="evenodd" fill="#B8CF76" d="M435.15,453.743c-2.393-0.046-4.788-0.19-7.177-0.103
		c-1.72,0.063-2.249-0.586-2.202-2.248c0.068-2.387-0.084-4.779-0.141-7.17l-0.069,0.107c3.197,0,6.395,0,9.593,0l-0.072-0.072
		c0,3.196,0,6.395,0,9.592L435.15,453.743z"/>
	<path fill-rule="evenodd" clip-rule="evenodd" fill="#B8CF76" d="M444.567,444.326c2.967,0,5.932,0,9.141,0
		c0,3.193,0,6.016,0,9.417c-3.037,0-6.07,0-9.103,0l0.068,0.106c0-3.197,0-6.396,0-9.592L444.567,444.326z"/>
	<path fill-rule="evenodd" clip-rule="evenodd" fill="#B8CF76" d="M349.069,454.205c0,2.942,0,5.697,0,8.688
		c-2.877,0-5.698,0-8.735,0c0-2.857,0-5.678,0-8.688C343.198,454.205,345.952,454.205,349.069,454.205z"/>
	<path fill-rule="evenodd" clip-rule="evenodd" fill="#B8CF76" d="M444.605,453.743c0,3.015,0,6.03,0,9.211
		c-3.326,0-6.129,0-9.455,0c0-3.181,0-6.196,0-9.211l-0.068,0.106c3.196,0,6.394,0,9.592,0L444.605,453.743z"/>
	<path fill-rule="evenodd" clip-rule="evenodd" fill="#B8CF76" d="M464.066,454.177c2.952,0,5.706,0,8.695,0c0,2.89,0,5.712,0,8.745
		c-2.87,0-5.69,0-8.695,0C464.066,460.045,464.066,457.291,464.066,454.177z"/>
	<path fill-rule="evenodd" clip-rule="evenodd" fill="#FFFFFF" d="M463.681,206.185c3.134,0.003,6.268,0.005,9.399,0.007
		c0.075,0.07,0.151,0.14,0.228,0.21c0,3.014,0,6.027,0,9.333c3.536,0,6.462,0,9.684,0c0,3.228,0,6.156,0,9.49
		c3.246,0,6.19,0,9.136,0c0.071,0.075,0.142,0.15,0.212,0.225c0,2.952,0,5.903,0,9.159c6.545,0,12.65,0,18.944,0
		c0,12.921,0,25.532,0,38.335c-3.188,0-6.289,0-9.71,0c0-3.064,0-6,0-9.241c-3.238,0-6.171,0-9.32,0c0-3.415,0-6.516,0-9.938
		c2.979,0,5.914,0,9.07,0c0-3.133,0-5.954,0-9.355c-9.424,0-18.793,0-28.162,0c0-6.138,0-12.275,0-18.641c-3.222,0-6.045,0-9.193,0
		c0,2.985,0,5.921,0,9.185c-6.614,0-12.913,0-19.213,0c-0.075-0.07-0.15-0.141-0.226-0.21c0-3.015,0-6.029,0-9.023
		c-3.38,0-6.13,0-9.305,0c0,3.124,0,6.072,0,9.021c-0.074,0.071-0.149,0.142-0.224,0.211c-4.573-0.564-9.164-1.012-13.713-1.727
		c-5.145-0.809-5.127-0.914-5.434-6.28c-0.021-0.354-0.135-0.703-0.263-1.348c-2.961,0-5.894,0-9.028,0c0-3.405,0-6.504,0-9.992
		c2.45,0,4.84-0.069,7.223,0.024c1.563,0.062,2.179-0.488,2.109-2.082c-0.097-2.208-0.024-4.426-0.024-6.947c-3.2,0-6.13,0-9.466,0
		c0-3.298,0-6.296,0-9.728c-3.353,0-6.302,0-9.25,0c-0.077-0.069-0.152-0.139-0.229-0.208c0.001-3.101,0.002-6.202,0.004-9.302
		c0.072-0.074,0.143-0.148,0.214-0.222c9.448,0.001,18.895,0.002,28.342,0.004c0.074,0.071,0.146,0.143,0.221,0.215
		c0.031,2.215,0.213,4.442,0.053,6.644c-0.156,2.161,0.702,2.739,2.712,2.597c2.176-0.153,4.372-0.034,6.737-0.034
		c0,3.479,0,6.593,0,9.708c-3.038,0.001-6.074,0.001-9.18,0.001c0,3.443,0,6.268,0,9.075c3.059,0,5.882,0,9.091,0
		c0-3.225,0-6.196,0-9.167c2.317-0.032,4.638-0.17,6.947-0.063c1.803,0.083,2.428-0.504,2.402-2.355
		c-0.074-5.466,0.027-10.935,0.061-16.402c0.072-0.074,0.144-0.148,0.215-0.222c3.101,0.001,6.201,0.002,9.303,0.004
		c0.069,0.074,0.141,0.149,0.21,0.224c0,2.955,0,5.909,0,9.178c3.389,0,6.327,0,9.512,0c0,3.453,0,6.59,0,9.727
		c-3.038,0.001-6.074,0.001-9.181,0.001c0,3.443,0,6.268,0,9.075c3.059,0,5.883,0,9.092,0
		C463.681,212.127,463.681,209.156,463.681,206.185z"/>
	<path fill-rule="evenodd" clip-rule="evenodd" fill="#FFFFFF" d="M273.241,196.737c3.122,0,6.243,0,9.659,0
		c0,3.013,0,5.933,0,9.455c3.288,0,6.294,0,9.3,0c0.076,0.07,0.151,0.14,0.226,0.21c0,2.955,0,5.909,0,9.304c3.392,0,6.346,0,9.3,0
		c0.071,0.075,0.141,0.149,0.211,0.225c0,3.052,0,6.104,0,9.469c-3.03,0-5.957,0-9.519,0c0,3.309,0,6.323,0,9.336
		c-0.07,0.075-0.14,0.15-0.21,0.226c-3.015,0-6.029,0-9.022,0c0,3.379,0,6.129,0,9.304c3.123,0,6.071,0,9.021,0
		c0.07,0.075,0.141,0.15,0.211,0.225c0,2.95,0,5.901,0,9.159c3.37,0,6.305,0,9.427,0c0,3.414,0,6.514,0,9.968
		c-5.394,0-10.676,0.118-15.948-0.053c-2.361-0.077-3.016,0.683-2.945,2.985c0.161,5.202,0.051,10.412,0.051,15.861
		c-3.274,0-6.375,0-9.798,0c0-2.898,0-5.83,0-9.174c-3.295,0-6.301,0-9.609,0c0-3.334,0-6.269,0-9.789c-3.335,0-6.365,0-9.395,0
		c0-6.3,0-12.601,0-19.283c2.497,0,4.888-0.07,7.271,0.025c1.572,0.062,2.168-0.505,2.103-2.091
		c-0.096-2.314-0.024-4.637-0.024-7.368c3.159,0,6.161,0,9.336,0c0-3.161,0-5.913,0-9.081c-2.968,0-5.972,0-9.148,0
		c0-3.513,0-6.61,0-10.024c3.073,0,6.008,0,9.502,0C273.241,209.127,273.241,202.932,273.241,196.737z"/>
	<path fill-rule="evenodd" clip-rule="evenodd" fill="#FFFFFF" d="M330.495,292.096c0,2.951,0,5.902,0,9.164c3.383,0,6.32,0,9.559,0
		c0,6.412,0,12.516,0,18.841c6.301,0,12.292,0,18.604,0c0-2.98,0-5.915,0-8.781c1.933-0.913,2.971-0.487,3.821,1.175
		c5.34,10.432,13.26,18.323,23.542,23.939c0.834,0.456,1.079,1.988,1.597,3.021c-0.073,0.072-0.146,0.145-0.22,0.217
		c-9.378,0-18.755,0-28.541,0c0-3.033,0-6.035,0-9.217c-3.222,0-6.037,0-9.162,0c0,3.059,0,5.988,0,9.22c-3.418,0-6.539,0-9.658,0
		c-0.076-0.069-0.151-0.14-0.226-0.21c0-3.016,0-6.029,0-9.023c-3.38,0-6.129,0-9.304,0c0,3.123,0,6.072,0,9.021
		c-0.073,0.072-0.144,0.146-0.216,0.219c-2.955,0-5.909,0-9.305,0c0,3.393,0,6.346,0,9.301c-0.075,0.07-0.15,0.141-0.225,0.212
		c-3.059,0-6.118,0-9.504,0c0-6.429,0-12.728,0-19.024c0.07-0.075,0.14-0.15,0.211-0.226c3.014,0,6.028,0,9.03,0
		c0.16-3.569,0.292-6.522,0.425-9.477c0.923-0.046,1.846-0.13,2.769-0.134c6.877-0.027,6.877-0.021,6.501-7.08
		c-0.009-0.186,0.054-0.396-0.016-0.553c-1.429-3.219-4.188-0.845-6.266-1.402c-1-0.27-2.803-0.74-2.82,1.477
		c-0.004,0.556-0.002,1.111-0.008,1.666c-0.022,2.039-0.048,4.076-0.074,6.113c-3.18,0.029-6.36,0.057-9.54,0.086
		c-0.073-0.072-0.146-0.144-0.219-0.216c0-2.954,0-5.909,0-9.304c-3.392,0-6.346,0-9.301,0c-0.07-0.075-0.141-0.15-0.211-0.226
		c0-2.949,0-5.897,0-9.151c-3.364,0-6.297,0-9.422,0c0-3.41,0-6.508,0-9.793c6.369,0,12.634,0,19.213,0c0,3.062,0,5.996,0,9.127
		c3.128,0,5.946,0,9.08,0c0-3.03,0-5.961,0-9.205c3.425,0,6.548,0,9.671,0C330.352,291.946,330.424,292.021,330.495,292.096z"/>
	<path fill-rule="evenodd" clip-rule="evenodd" fill="#FFFFFF" d="M320.914,234.817c0,2.963,0,5.925,0,9.118
		c6.387,0,12.376,0,18.686,0c0-2.957,0-5.889,0-9.138c3.234,0,6.166,0,9.364,0c0-3.128,0-5.947,0-9.09c-2.862,0-5.796,0-8.99,0
		c0-3.408,0-6.511,0-9.712c0.149-0.074,0.388-0.297,0.627-0.297c12.477,0.015,24.955,0.049,37.433,0.081
		c0.022,3.146,0.043,6.292,0.065,9.439c-0.069,0.076-0.139,0.152-0.208,0.229c-2.955,0-5.91,0-9.306,0c0,3.388,0,6.342,0,9.297
		c-0.075,0.071-0.15,0.142-0.225,0.211c-2.944,0-5.889,0-9.129,0c0,3.343,0,6.27,0,9.497c-3.22,0-6.144,0-9.691,0
		c0,3.302,0,6.313,0,9.326c-0.07,0.076-0.14,0.15-0.21,0.226c-6.125,0-12.249,0-18.786,0c0,3.429,0,6.433,0,9.741
		c-3.35,0-6.284,0-9.212,0c0,3.149,0,5.973,0,9.104c3.18,0,6.114,0,9.174,0c0,3.377,0,6.437,0,9.495
		c-0.075,0.07-0.15,0.143-0.225,0.212c-6.221,0-12.441,0-18.894,0c0-15.866,0-31.632,0-47.737
		C314.509,234.817,317.711,234.817,320.914,234.817z"/>
	<path fill-rule="evenodd" clip-rule="evenodd" fill="#FFFFFF" d="M520.833,301.457c0,3.197,0,6.395,0,9.593
		c-2.965,0-5.931,0-9.216,0c0,3.335,0,6.271,0,9.446c-3.419,0-6.526,0-9.958,0c0-6.101,0-12.211,0-18.557c-9.489,0-18.66,0-28.153,0
		c0,2.958,0,5.894,0,9.053c-4.063,0-7.81,0-11.968,0c5.508-12.36,6.625-24.928,3.274-38.186c2.815,0,5.28,0,8.349,0
		c0-6.535,0-12.742,0-18.949c3.134-0.001,6.268-0.001,9.691-0.001c0,12.571,0,25.003,0,37.831c9.613,0,18.948,0,28.59,0
		c0,3.318,0,6.252,0,9.77C514.775,301.457,517.805,301.457,520.833,301.457z"/>
	<path fill-rule="evenodd" clip-rule="evenodd" fill="#FFFFFF" d="M568.433,377.689c-2.478,0.057-4.958,0.18-7.436,0.146
		c-1.43-0.018-1.955,0.507-1.938,1.938c0.033,2.477-0.088,4.957-0.146,7.436c-3.136,0-6.273,0-9.648,0
		c0-6.449,0-12.753,0.002-19.059c3.038,0,6.074,0,9.18,0c0-3.443,0-6.269,0-9.076c-3.058,0-5.883,0-9.092,0c0,3.227,0,6.196,0,9.168
		c-9.48-0.003-18.959-0.006-28.439-0.008c-0.076-0.07-0.151-0.141-0.226-0.209c0-3.016,0-6.031,0-9.347c-3.555,0-6.481,0-9.519,0
		c0-3.366,0-6.421,0-9.475c0.074-0.069,0.149-0.142,0.225-0.212c2.951,0,5.902,0,9.163,0c0-3.373,0-6.309,0-9.428
		c3.415,0,6.516,0,9.935,0c0,3.053,0,5.988,0,9.211c12.748,0,25.186,0,37.939,0C568.433,358.609,568.433,368.148,568.433,377.689z"
		/>
	<path fill-rule="evenodd" clip-rule="evenodd" fill="#FFFFFF" d="M311.321,187.217c2.952,0,5.903,0,9.52,0c0-9.76,0-19.16,0-28.561
		c3.138,0,6.276,0,9.587,0c0,25.396,0,50.638,0,76.233c-3.171,0-6.379,0-9.587,0c0-2.966,0-5.932,0-9.215c-3.332,0-6.269,0-9.621,0
		c0-3.311,0-6.32,0-9.744c-3.37,0-6.326,0-9.283,0c-0.07-0.075-0.141-0.15-0.211-0.225c0.001-3.101,0.002-6.201,0.004-9.302
		c0.075-0.07,0.149-0.141,0.225-0.211c6.125,0,12.25,0,18.543,0c0-3.209,0-5.965,0-9.045c-2.955,0-5.891,0-9.178,0
		C311.321,193.634,311.321,190.425,311.321,187.217z"/>
	<path fill-rule="evenodd" clip-rule="evenodd" fill="#FFFFFF" d="M473.161,396.729c0-6.165,0-12.33,0-19.04c-3.49,0-6.506,0-9.52,0
		c-0.022-6.319-0.043-12.64-0.064-18.959c0.068-0.076,0.139-0.152,0.207-0.228c6.128,0,12.254,0,18.827,0c0-3.389,0-6.344,0-9.299
		c0.071-0.073,0.142-0.147,0.214-0.222c3.13,0,6.261,0,9.52,0c0,6.574,0,12.807,0,19.039c-0.072,0.074-0.143,0.147-0.216,0.221
		c-3.015,0-6.029,0-9.023,0c0,3.379,0,6.129,0,9.305c3.126,0,6.073,0,9.021,0c0.07,0.074,0.142,0.149,0.212,0.225
		c0,2.949,0,5.899,0,9.155c3.365,0,6.301,0,9.424,0c0,6.579,0,12.847,0,19.303c-3.193,0-6.293,0-9.707,0c0-3.067,0-6.001,0-9.5
		C485.553,396.729,479.357,396.729,473.161,396.729z"/>
	<path fill-rule="evenodd" clip-rule="evenodd" fill="#FFFFFF" d="M340.035,339.675c0,9.401,0,18.802,0,28.521
		c-3.043,0-5.977,0-9.326,0c0,3.306,0,6.31,0,9.481c-6.623,0-12.83,0-19.297,0c0-6.24,0-12.515,0-19.209c2.924,0,5.931,0,9.348,0
		c0-3.365,0-6.32,0-9.274c0.075-0.071,0.15-0.142,0.225-0.212c2.956,0,5.911,0,9.305,0c0-3.388,0-6.344,0-9.301
		c0.072-0.072,0.143-0.146,0.216-0.219c3.101,0,6.202,0.002,9.304,0.002C339.884,339.535,339.959,339.605,340.035,339.675z"/>
	<path fill-rule="evenodd" clip-rule="evenodd" fill="#FFFFFF" d="M425.695,358.735c0,6.12,0,12.239,0,18.673
		c3.371,0,6.306,0,9.431,0c0,3.416,0,6.518,0,9.939c-3.049,0-5.984,0-9.218,0c0,9.58,0,18.852,0,28.355c-3.4,0-6.502,0-9.823,0
		c0-18.961,0-37.911,0-57.189c3.143,0,6.269,0,9.395,0C425.551,358.587,425.623,358.66,425.695,358.735z"/>
	<path fill-rule="evenodd" clip-rule="evenodd" fill="#FFFFFF" d="M397.135,358.735c0,2.955,0,5.909,0,9.177
		c3.396,0,6.333,0,9.445,0c0,9.706,0,19.092,0,28.899c-2.968,0-5.979,0-9.295,0c0,3.348,0,6.286,0,9.411c-3.426,0-6.531,0-9.805,0
		c0-6.352,0-12.564,0-19.103c2.95,0,5.886,0,9.085,0c0-3.138,0-5.96,0-9.112c-2.882,0-5.819,0-9.003,0c0-6.594,0-12.873,0-19.494
		c3.099,0,6.228,0,9.357,0C396.991,358.587,397.063,358.66,397.135,358.735z"/>
	<path fill-rule="evenodd" clip-rule="evenodd" fill="#FFFFFF" d="M435.017,348.976c-0.033-3.251-0.18-6.508-0.026-9.751
		c0.042-0.877,0.806-1.986,1.567-2.517c2.965-2.063,5.883-4.38,9.175-5.735c2.487-1.025,5.519-0.729,8.308-1.02
		c0.076,0.069,0.15,0.139,0.227,0.209c0,2.955,0,5.91,0,9.305c3.391,0,6.346,0,9.301,0c0.072,0.071,0.147,0.143,0.221,0.213
		c-0.001,6.274-0.002,12.549-0.004,18.823c-0.068,0.075-0.139,0.151-0.207,0.228c-6.274-0.006-12.548-0.011-18.822-0.016
		c-0.075-0.07-0.151-0.141-0.226-0.21c0-2.955,0-5.91,0-9.306c-3.392,0-6.347,0-9.3,0
		C435.158,349.126,435.088,349.051,435.017,348.976z"/>
	<path fill-rule="evenodd" clip-rule="evenodd" fill="#FFFFFF" d="M412.027,307.234c-9.924-0.395-17.515-6.033-22.861-15.117
		c-1.228-2.088-0.903-4.24,1.148-5.705c2.128-1.521,4.133-0.726,5.728,0.994c1.641,1.77,2.955,3.854,4.661,5.549
		c7.809,7.764,17.995,7.203,25.024-1.281c0.475-0.572,0.917-1.178,1.438-1.708c2.088-2.13,4.348-2.483,6.194-1.007
		c1.741,1.393,2.114,4.086,0.563,6.327C428.869,302.583,422.173,307.107,412.027,307.234z"/>
	<path fill-rule="evenodd" clip-rule="evenodd" fill="#FFFFFF" d="M377.961,215.85c0-2.949,0-5.898,0-9.24c-3.327,0-6.319,0-9.583,0
		c0-3.498,0-6.607,0-9.718c0.073-0.073,0.147-0.145,0.221-0.217c2.947,0,5.894,0,9.141,0c0-3.359,0-6.289,0-9.523
		c3.42,0,6.541,0,9.661,0c0.075,0.07,0.151,0.14,0.227,0.21c0,2.955,0,5.91,0,9.305c3.391,0,6.346,0,9.3,0
		c0.076,0.069,0.152,0.138,0.229,0.208c0,3.062,0,6.125,0,9.506c-3.071,0-6.007,0-9.259,0c0,3.243,0,6.178,0,9.469
		C384.379,215.85,381.17,215.85,377.961,215.85z"/>
	<path fill-rule="evenodd" clip-rule="evenodd" fill="#FFFFFF" d="M349.336,377.536c0-6.233,0-12.464,0-19.017
		c3.061,0,5.997,0,9.249,0c0-3.242,0-6.178,0-9.371c6.591,0,12.869,0,19.383,0c0,3.043,0,6.148,0,9.58c-2.953,0-5.89,0-9.139,0
		c0,3.242,0,6.178,0,9.531c-3.309,0-6.316,0-9.771,0c0,3.367,0,6.321,0,9.275c-0.069,0.076-0.138,0.152-0.208,0.229
		c-3.101,0-6.202-0.002-9.302-0.004C349.478,377.686,349.407,377.611,349.336,377.536z"/>
	<path fill-rule="evenodd" clip-rule="evenodd" fill="#FFFFFF" d="M359.058,377.535c6.226,0,12.451,0,18.91,0
		c0,3.209,0,6.309,0,9.73c-2.931,0-5.862,0-9.203,0c0,3.297,0,6.303,0,9.605c-3.335,0-6.268,0-9.507,0c0,3.236,0,6.168,0,9.321
		c-3.409,0-6.509,0-9.921,0c0-6.321,0-12.612,0-18.901c0.07-0.076,0.14-0.15,0.21-0.227c2.954,0,5.909,0,9.304,0
		c0-3.39,0-6.345,0-9.301C358.92,377.688,358.989,377.611,359.058,377.535z"/>
	<path fill-rule="evenodd" clip-rule="evenodd" fill="#FFFFFF" d="M397.074,434.737c0,6.312,0,12.622,0,19.106
		c-3.189,0-6.227,0-9.688,0c0-2.992,0-6,0-9.314c-3.346,0-6.285,0-9.533,0c0-3.245,0-6.184,0-9.721c-3.345,0-6.378,0-9.412,0
		c-0.021-3.145-0.043-6.291-0.064-9.438c0.074-0.072,0.148-0.143,0.223-0.215c6.205,0,12.411,0,19.019,0c0,3.033,0,6.029,0,9.581
		C391.031,434.737,394.053,434.737,397.074,434.737z"/>
	<path fill-rule="evenodd" clip-rule="evenodd" fill="#FFFFFF" d="M349.538,263.531c0,9.407,0,18.813,0,28.565
		c-6.437,0-12.74,0-19.043,0c-0.071-0.074-0.143-0.149-0.215-0.223c0-3.107,0-6.213,0-9.319c0.075-0.069,0.15-0.142,0.225-0.212
		c3.016,0,6.033,0,9.345,0c0-6.725,0-12.824,0-19.036c3.364,0,6.421,0,9.477,0C349.397,263.381,349.468,263.456,349.538,263.531z"/>
	<path fill-rule="evenodd" clip-rule="evenodd" fill="#FFFFFF" d="M463.715,377.617c0,6.371,0,12.742,0,19.112
		c-6.31,0-12.618,0-19.103,0c0-6.351,0-12.558,0-19.112C450.963,377.617,457.339,377.617,463.715,377.617z"/>
	<path fill-rule="evenodd" clip-rule="evenodd" fill="#FFFFFF" d="M282.68,358.715c-3.056,0-6.112,0-9.386,0
		c0-6.393,0-12.66,0-19.242c6.325,0,12.615,0,18.906,0c0.072,0.074,0.144,0.148,0.215,0.223c0.001,3.094,0.002,6.188,0.004,9.281
		c-0.07,0.076-0.14,0.15-0.21,0.227c-2.955,0-5.909,0-9.304,0c0,3.391,0,6.345,0,9.299
		C282.83,358.573,282.755,358.643,282.68,358.715z"/>
	<path fill-rule="evenodd" clip-rule="evenodd" fill="#FFFFFF" d="M292.418,358.73c0,2.947,0,5.895,0,9.145c3.355,0,6.286,0,9.416,0
		c0,3.402,0,6.498,0,9.791c-6.337,0-12.598,0-19.154,0c0-6.382,0-12.667,0-18.951c0.075-0.072,0.15-0.142,0.225-0.213
		c3.101,0.002,6.202,0.003,9.302,0.004C292.277,358.582,292.348,358.656,292.418,358.73z"/>
	<path fill-rule="evenodd" clip-rule="evenodd" fill="#FFFFFF" d="M435.154,444.33c-3.198,0-6.396,0-9.593,0
		c-0.057-2.48-0.179-4.96-0.147-7.438c0.02-1.43-0.506-1.955-1.936-1.937c-2.478,0.032-4.958-0.089-7.438-0.147
		c0-3.136,0-6.273,0-9.584c6.355,0,12.563,0,19.113,0C435.154,431.58,435.154,437.955,435.154,444.33z"/>
	<path fill-rule="evenodd" clip-rule="evenodd" fill="#FFFFFF" d="M422.658,275.258c1.18,0.137,2.372,0.205,3.535,0.424
		c2.663,0.498,4.111,2.401,3.652,4.688c-0.448,2.232-2.242,3.456-4.88,2.906c-3.903-0.813-7.834-1.654-11.583-2.974
		c-1.375-0.483-2.943-2.249-3.168-3.634c-0.202-1.23,0.993-3.27,2.167-4.033c3.416-2.225,7.121-4.004,10.734-5.916
		c0.562-0.298,1.228-0.48,1.863-0.547c2.074-0.217,3.735,0.518,4.423,2.566c0.721,2.143-0.384,3.635-2.255,4.495
		c-1.417,0.651-2.962,1.026-4.45,1.526C422.686,274.925,422.67,275.092,422.658,275.258z"/>
	<path fill-rule="evenodd" clip-rule="evenodd" fill="#FFFFFF" d="M406.594,434.809c-3.197,0-6.395,0-9.592,0
		c0-6.307,0-12.613,0-19.1c3.176,0,6.212,0,9.592,0C406.594,422.061,406.594,428.436,406.594,434.809z"/>
	<path fill-rule="evenodd" clip-rule="evenodd" fill="#FFFFFF" d="M482.616,339.456c0-3.056,0-6.11,0-9.386
		c6.387,0,12.652,0,19.242,0c0,3.139,0,6.262,0,9.385c-0.068,0.076-0.139,0.152-0.207,0.229c-6.275,0-12.549-0.002-18.823-0.004
		C482.759,339.605,482.688,339.531,482.616,339.456z"/>
	<path fill-rule="evenodd" clip-rule="evenodd" fill="#FFFFFF" d="M254.274,291.937c0,6.272,0,12.546,0,19.113
		c-3.217,0-6.405,0-9.593,0c0-6.272,0-12.544,0-19.113C247.898,291.937,251.086,291.937,254.274,291.937z"/>
	<path fill-rule="evenodd" clip-rule="evenodd" fill="#FFFFFF" d="M473.233,244.336c0,3.198,0,6.396,0,9.594
		c-5.475,0.053-10.955,0.246-16.419,0.033c-0.981-0.038-2.497-1.627-2.718-2.712c-0.432-2.129-0.127-4.408-0.127-6.914
		C460.518,244.336,466.876,244.336,473.233,244.336z"/>
	<path fill-rule="evenodd" clip-rule="evenodd" fill="#FFFFFF" d="M349.539,253.776c5.835,0,11.67,0,18.028,0
		c-1.999,3.324-3.78,6.379-5.69,9.351c-0.246,0.383-1.16,0.465-1.766,0.467c-3.524,0.015-7.049-0.036-10.573-0.064
		c-0.07-0.075-0.141-0.149-0.211-0.225c0.001-3.101,0.001-6.203,0.002-9.304C349.399,253.927,349.469,253.852,349.539,253.776z"/>
	<path fill-rule="evenodd" clip-rule="evenodd" fill="#FFFFFF" d="M263.794,292.01c-3.198,0-6.395,0-9.593,0
		c0-3.136,0-6.271,0-9.582c3.176,0,6.211,0,9.593,0C263.794,285.6,263.794,288.805,263.794,292.01z"/>
	<path fill-rule="evenodd" clip-rule="evenodd" fill="#FFFFFF" d="M301.72,320.634c-3.054,0-6.107,0-9.383,0
		c0-3.213,0-6.312,0-9.738c3.151,0,6.276,0,9.4,0c0.071,0.075,0.141,0.15,0.211,0.226c-0.001,3.1-0.003,6.2-0.004,9.301
		C301.87,320.493,301.795,320.563,301.72,320.634z"/>
	<path fill-rule="evenodd" clip-rule="evenodd" fill="#FFFFFF" d="M482.606,320.471c0-3.238,0-6.208,0-9.42c3.188,0,6.293,0,9.618,0
		c0,3.094,0,6.195,0,9.42C488.983,320.471,485.815,320.471,482.606,320.471z"/>
	<path fill-rule="evenodd" clip-rule="evenodd" fill="#FFFFFF" d="M301.74,329.932c-0.007-3.1-0.014-6.198-0.021-9.298
		c0.075-0.07,0.15-0.141,0.225-0.212c3.102,0.002,6.203,0.002,9.305,0.003c0.073,0.072,0.146,0.144,0.219,0.216
		c0,3.102-0.001,6.203-0.001,9.304c-0.071,0.075-0.141,0.15-0.211,0.226c-3.1-0.006-6.2-0.012-9.299-0.018
		C301.884,330.08,301.812,330.006,301.74,329.932z"/>
	<path fill-rule="evenodd" clip-rule="evenodd" fill="#FFFFFF" d="M301.957,330.152c0,3.1,0,6.197,0,9.543c-3.345,0-6.443,0-9.542,0
		c-0.072-0.074-0.144-0.148-0.215-0.223c0-3.098,0-6.195,0-9.541c3.343,0,6.441,0,9.541,0
		C301.812,330.006,301.884,330.08,301.957,330.152z"/>
	<path fill-rule="evenodd" clip-rule="evenodd" fill="#FFFFFF" d="M463.796,329.953c3.059,0,6.116,0,9.503,0
		c0,3.248,0,6.376,0,9.503c-0.069,0.075-0.14,0.15-0.209,0.226c-3.101,0-6.201,0-9.302-0.002c-0.073-0.07-0.148-0.142-0.221-0.213
		c0.001-3.101,0.002-6.201,0.004-9.303C463.646,330.094,463.72,330.023,463.796,329.953z"/>
	<path fill-rule="evenodd" clip-rule="evenodd" fill="#FFFFFF" d="M473.299,339.456c3.106,0,6.212,0,9.317,0
		c0.072,0.075,0.143,0.149,0.212,0.224c-0.001,3.102-0.003,6.202-0.003,9.303c-0.072,0.074-0.143,0.148-0.214,0.222
		c-3.132,0-6.262,0-9.521,0c0-3.399,0-6.46,0-9.522C473.159,339.606,473.229,339.531,473.299,339.456z"/>
	<path fill-rule="evenodd" clip-rule="evenodd" fill="#FFFFFF" d="M501.858,339.455c3.098,0,6.197,0,9.537,0c0,3.342,0,6.44,0,9.537
		c-0.075,0.07-0.15,0.143-0.225,0.212c-3.131,0-6.262,0-9.52,0c0-3.399,0-6.46,0-9.521
		C501.72,339.607,501.79,339.531,501.858,339.455z"/>
	<path fill-rule="evenodd" clip-rule="evenodd" fill="#FFFFFF" d="M254.119,358.514c0-3.055,0-6.107,0-9.393
		c3.211,0,6.308,0,9.626,0c0,3.096,0,6.193,0,9.613c-3.165,0-6.287,0-9.41,0C254.264,358.66,254.191,358.587,254.119,358.514z"/>
	<path fill-rule="evenodd" clip-rule="evenodd" fill="#FFFFFF" d="M292.419,348.977c3.057,0,6.114,0,9.396,0
		c0,3.223,0,6.322,0,9.754c-3.146,0-6.271,0-9.397,0c-0.071-0.074-0.141-0.148-0.211-0.225c0-3.102,0.001-6.203,0.001-9.303
		C292.279,349.127,292.349,349.053,292.419,348.977z"/>
	<path fill-rule="evenodd" clip-rule="evenodd" fill="#FFFFFF" d="M397.16,348.996c3.053,0,6.106,0,9.381,0c0,3.211,0,6.311,0,9.739
		c-3.156,0-6.281,0-9.406,0c-0.071-0.075-0.144-0.148-0.215-0.222c0.006-3.102,0.012-6.202,0.018-9.303
		C397.011,349.14,397.085,349.067,397.16,348.996z"/>
	<path fill-rule="evenodd" clip-rule="evenodd" fill="#FFFFFF" d="M435.001,358.715c-3.102,0.006-6.204,0.014-9.306,0.021
		c-0.072-0.075-0.145-0.148-0.216-0.222c0.006-3.101,0.013-6.201,0.019-9.301c0.074-0.073,0.147-0.146,0.221-0.217
		c3.101-0.007,6.199-0.014,9.298-0.021c0.071,0.075,0.142,0.15,0.213,0.224c-0.003,3.102-0.004,6.203-0.005,9.304
		C435.15,358.573,435.075,358.643,435.001,358.715z"/>
	<path fill-rule="evenodd" clip-rule="evenodd" fill="#FFFFFF" d="M444.755,358.715c0,3.057,0,6.113,0,9.396
		c-3.225,0-6.323,0-9.754,0c0-3.146,0-6.271,0-9.396c0.074-0.072,0.149-0.142,0.224-0.212c3.102,0.001,6.202,0.001,9.305,0.002
		C444.604,358.574,444.68,358.645,444.755,358.715z"/>
	<path fill-rule="evenodd" clip-rule="evenodd" fill="#FFFFFF" d="M349.336,387.291c-3.057,0-6.114,0-9.396,0
		c0-3.224,0-6.323,0-9.755c3.145,0,6.271,0,9.396,0c0.071,0.075,0.142,0.149,0.212,0.224c0,3.102-0.001,6.203-0.001,9.305
		C349.477,387.141,349.407,387.215,349.336,387.291z"/>
	<path fill-rule="evenodd" clip-rule="evenodd" fill="#FFFFFF" d="M368.38,415.612c0-3.05,0-6.099,0-9.376c3.195,0,6.289,0,9.605,0
		c0,3.1,0,6.193,0,9.596c-3.153,0-6.271,0-9.389,0C368.524,415.76,368.452,415.686,368.38,415.612z"/>
	<path fill-rule="evenodd" clip-rule="evenodd" fill="#FFFFFF" d="M454.036,415.831c-3.05,0-6.099,0-9.375,0c0-3.194,0-6.29,0-9.606
		c3.099,0,6.193,0,9.597,0c0,3.154,0,6.273,0,9.391C454.185,415.688,454.11,415.759,454.036,415.831z"/>
	<path fill-rule="evenodd" clip-rule="evenodd" fill="#FFFFFF" d="M368.597,415.832c0.001,3.109,0.002,6.217,0.003,9.324
		c-0.075,0.072-0.149,0.143-0.223,0.215c-3.057,0-6.114,0-9.397,0c0-3.224,0-6.324,0-9.759c3.147,0,6.273,0,9.4,0
		C368.452,415.686,368.524,415.76,368.597,415.832z"/>
	<path fill-rule="evenodd" clip-rule="evenodd" fill="#FFFFFF" d="M463.714,415.697c0,3.197,0,6.396,0,9.592
		c-3.125,0-6.25,0-9.678,0c0-3.225,0-6.342,0-9.458c0.074-0.072,0.148-0.144,0.222-0.216
		C457.411,415.643,460.562,415.67,463.714,415.697z"/>
	<path fill-rule="evenodd" clip-rule="evenodd" fill="#FFFFFF" d="M387.396,234.951c-3.094,0.001-6.188,0.003-9.282,0.004
		c-0.075-0.07-0.151-0.141-0.226-0.21c0-3.1,0.001-6.2,0.001-9.3c0.069-0.077,0.139-0.153,0.208-0.229c3.062,0,6.123,0,9.518,0
		c0,3.261,0,6.39,0,9.519C387.544,234.807,387.47,234.879,387.396,234.951z"/>
	<path fill-rule="evenodd" clip-rule="evenodd" fill="#FFFFFF" d="M292.419,234.736c3.057,0,6.114,0,9.396,0
		c0,3.224,0,6.323,0,9.755c-3.146,0-6.271,0-9.397,0c-0.071-0.075-0.141-0.15-0.211-0.225c0-3.102,0.001-6.202,0.001-9.304
		C292.279,234.887,292.349,234.812,292.419,234.736z"/>
	<path fill-rule="evenodd" clip-rule="evenodd" fill="#FFFFFF" d="M368.514,434.737c0,3.108,0,6.219,0,9.593
		c-3.239,0-6.415,0-9.592,0c0-3.11,0-6.219,0-9.593C362.16,434.737,365.337,434.737,368.514,434.737z"/>
	<path fill-rule="evenodd" clip-rule="evenodd" fill="#FFFFFF" d="M416.113,434.737c0,3.197,0,6.396,0,9.593
		c-3.109,0-6.219,0-9.592,0c0-3.238,0-6.416,0-9.593C409.718,434.737,412.917,434.737,416.113,434.737z"/>
	<path fill-rule="evenodd" clip-rule="evenodd" fill="#FFFFFF" d="M444.674,453.85c-3.198,0-6.396,0-9.592,0
		c0-3.197,0-6.396,0-9.592c3.196,0,6.394,0,9.592,0C444.674,447.454,444.674,450.652,444.674,453.85z"/>
	<path fill-rule="evenodd" clip-rule="evenodd" fill="#FFFFFF" d="M301.863,282.504c-3.22,0-6.256,0-9.522,0
		c0-3.158,0-6.262,0-9.571c3.137,0,6.24,0,9.522,0C301.863,276.076,301.863,279.113,301.863,282.504z"/>
	<path fill-rule="evenodd" clip-rule="evenodd" fill="#FFFFFF" d="M378.115,234.955c0.027,2.408,0.238,4.835-0.017,7.214
		c-0.091,0.858-1.23,2.183-2.016,2.278c-2.444,0.298-4.949,0.109-7.722,0.109c0-3.372,0-6.487,0-9.603
		c0.075-0.07,0.15-0.141,0.225-0.211c3.101,0.001,6.203,0.002,9.305,0.002C377.964,234.814,378.04,234.885,378.115,234.955z"/>
	<path fill-rule="evenodd" clip-rule="evenodd" fill="#FFFFFF" d="M454.04,329.953c-0.027-1.943-0.17-3.892-0.053-5.824
		c0.14-2.271,1.186-3.834,3.766-3.803c1.92,0.021,3.842,0.004,6.043,0.004c0,3.4,0,6.512,0,9.623
		c-0.076,0.07-0.15,0.141-0.225,0.211c-3.102-0.001-6.203-0.001-9.305-0.002C454.19,330.092,454.116,330.022,454.04,329.953z"/>
	<path fill-rule="evenodd" clip-rule="evenodd" fill="#FFFFFF" d="M387.617,339.455c2.641,0.261,5.31,0.373,7.901,0.883
		c0.696,0.137,1.556,1.441,1.642,2.281c0.213,2.104,0.026,4.248,0,6.377c-0.074,0.071-0.148,0.144-0.222,0.215
		c-3.098,0-6.196,0-9.541,0c0-3.343,0-6.441,0-9.539C387.47,339.6,387.544,339.527,387.617,339.455z"/>
	<path fill-rule="evenodd" clip-rule="evenodd" fill="#FFFFFF" d="M425.498,349.213c-3.048,0-6.095,0-9.598,0
		c0-1.898-0.075-3.71,0.052-5.506c0.034-0.482,0.629-1.241,1.067-1.322c2.789-0.514,5.606-0.871,8.7-1.324c0,2.798,0,5.367,0,7.936
		C425.646,349.067,425.572,349.14,425.498,349.213z"/>
	<path fill-rule="evenodd" clip-rule="evenodd" fill="#FFFFFF" d="M444.755,234.955c0,2.58,0,5.16,0,8.101
		c-3.273-1.881-6.287-3.479-9.119-5.354c-0.568-0.377-0.441-1.804-0.635-2.748c0.074-0.07,0.149-0.141,0.224-0.211
		c3.102,0.001,6.202,0.002,9.305,0.002C444.604,234.814,444.68,234.885,444.755,234.955z"/>
	<path fill-rule="evenodd" clip-rule="evenodd" fill="#FFFFFF" d="M387.617,234.735c1.836,0,3.672,0,5.507,0
		c0.059,0.2,0.117,0.399,0.176,0.599c-1.779,0.755-3.558,1.51-5.903,2.505c0-1.213,0-2.051,0-2.888
		C387.47,234.879,387.544,234.807,387.617,234.735z"/>
	<path fill-rule="evenodd" clip-rule="evenodd" fill="#FFFFFF" d="M539.863,415.783c-9.564,0-18.946,0-28.561,0
		c0-9.504,0-18.953,0-28.609c9.48,0,18.93,0,28.561,0C539.863,396.662,539.863,406.045,539.863,415.783z M529.938,397.099
		c-2.999,0-5.818,0-8.927,0c0,2.596-0.07,5.001,0.057,7.395c0.027,0.517,0.742,1.403,1.177,1.426
		c2.558,0.136,5.126,0.067,7.693,0.067C529.938,402.752,529.938,399.998,529.938,397.099z"/>
	<path fill-rule="evenodd" clip-rule="evenodd" fill="#FFFFFF" d="M520.915,368.234c0,3.047,0,6.094,0,9.537
		c-9.588,0-19.082,0-28.576,0c-0.07-0.075-0.142-0.15-0.212-0.225c0.001-3.102,0.001-6.203,0.002-9.305
		c0.073-0.073,0.144-0.146,0.216-0.221c9.447,0.002,18.896,0.002,28.345,0.004C520.764,368.094,520.839,368.164,520.915,368.234z"/>
	<path fill-rule="evenodd" clip-rule="evenodd" fill="#FFFFFF" d="M511.241,444.33c-0.057-2.48-0.178-4.96-0.146-7.438
		c0.02-1.43-0.506-1.955-1.936-1.937c-2.479,0.032-4.958-0.089-7.438-0.147c0-3.195,0-6.395,0-9.592c6.281,0,12.564,0,19.111,0
		c0,6.414,0,12.764,0,19.113C517.637,444.33,514.438,444.33,511.241,444.33z"/>
	<path fill-rule="evenodd" clip-rule="evenodd" fill="#FFFFFF" d="M549.333,406.164c3.217,0,6.253,0,9.52,0c0,3.154,0,6.258,0,9.568
		c-3.131,0-6.234,0-9.52,0C549.333,412.594,549.333,409.557,549.333,406.164z"/>
	<path fill-rule="evenodd" clip-rule="evenodd" fill="#FFFFFF" d="M501.794,425.289c-3.197,0-6.396,0-9.592,0
		c0-3.135,0-6.27,0-9.581c3.176,0,6.211,0,9.592,0C501.794,418.88,501.794,422.084,501.794,425.289z"/>
	<path fill-rule="evenodd" clip-rule="evenodd" fill="#FFFFFF" d="M568.366,415.677c3.238,0,6.273,0,9.533,0
		c0,3.177,0,6.279,0,9.584c-3.155,0-6.257,0-9.533,0C568.366,422.098,568.366,419.061,568.366,415.677z"/>
	<path fill-rule="evenodd" clip-rule="evenodd" fill="#FFFFFF" d="M397.001,130.097c6.371,0,12.742,0,19.112,0
		c0,2.95,0,5.899,0,9.241c3.333,0,6.323,0,9.586,0c0,3.498,0,6.609,0,9.72c-0.07,0.075-0.14,0.15-0.209,0.225
		c-9.35,0-18.698,0-28.382,0c0,6.709,0,12.837,0,18.963c-3.026,0-6.052,0-9.484,0c0,3.49,0,6.434,0,9.377
		c-0.075,0.07-0.15,0.141-0.225,0.211c-3.052,0-6.104,0-9.468,0c0-3.03,0-5.956,0-9.521c-3.309,0-6.322,0-9.335,0
		c-0.072-0.073-0.145-0.147-0.217-0.221c0-3.053,0-6.105,0-9.556c6.267,0,12.434,0,18.759,0c0-3.147,0-5.899,0-9.063
		c-3.002,0-6.003,0-9.168,0c0-3.438,0-6.47,0-9.905c6.121,0,12.287,0,19.03,0C397.001,136.151,397.001,133.124,397.001,130.097z"/>
	<path fill-rule="evenodd" clip-rule="evenodd" fill="#FFFFFF" d="M368.378,196.893c-2.957,0-5.914,0-9.18,0
		c0,3.354,0,6.292,0,9.412c-3.422,0-6.525,0-9.951,0c0-3.069,0-6.007,0-9.254c-3.243,0-6.18,0-9.322,0c0-9.766,0-19.213,0-28.852
		c3.113,0,6.151,0,9.609,0c0,6.113,0,12.292,0,18.777c6.514,0,12.621,0,19.065,0c0,3.438,0,6.569,0,9.699
		C368.525,196.748,368.451,196.82,368.378,196.893z"/>
	<path fill-rule="evenodd" clip-rule="evenodd" fill="#FFFFFF" d="M368.519,139.637c0,3.191,0,6.227,0,9.503
		c-3.129,0-6.232,0-9.553,0c0-3.107,0-6.209,0-9.503C362.15,139.637,365.252,139.637,368.519,139.637z"/>
	<path fill-rule="evenodd" clip-rule="evenodd" fill="#FFFFFF" d="M368.597,168.313c0,3.054,0,6.108,0,9.393
		c-3.211,0-6.308,0-9.627,0c0-3.097,0-6.193,0-9.614c3.165,0,6.288,0,9.41,0C368.452,168.166,368.524,168.24,368.597,168.313z"/>
	<path fill-rule="evenodd" clip-rule="evenodd" fill="#FFFFFF" d="M387.4,187.152c0-3.106,0-6.212,0-9.318
		c0.075-0.07,0.149-0.141,0.225-0.211c3.161,0.026,6.322,0.052,9.484,0.079c0.012,3.147,0.024,6.294,0.036,9.441
		c-0.071,0.074-0.142,0.148-0.214,0.222c-3.101-0.001-6.203-0.002-9.304-0.002C387.551,187.292,387.476,187.222,387.4,187.152z"/>
	<path fill-rule="evenodd" clip-rule="evenodd" fill="#FFFFFF" d="M539.874,196.737c0.058,2.479,0.18,4.959,0.146,7.438
		c-0.018,1.43,0.506,1.955,1.938,1.937c2.477-0.032,4.957,0.089,7.436,0.146c0,3.129,0,6.257,0,9.763
		c-2.496,0-4.881,0.068-7.26-0.024c-1.554-0.06-2.064,0.486-2.128,2.069c-0.279,7.021-0.329,7.02,6.585,7.064
		c0.826,0.005,1.654,0,2.803,0c0,3.365,0,6.563,0,9.761c-6.369,0-12.74,0-19.111,0c0-2.964,0-5.928,0-9.206
		c-3.324,0-6.258,0-9.521,0c0-9.857,0-19.402,0-28.947C527.132,196.737,533.503,196.737,539.874,196.737z"/>
	<path fill-rule="evenodd" clip-rule="evenodd" fill="#FFFFFF" d="M530.354,234.817c0,9.544,0,19.089,0,28.633
		c-3.137,0-6.273,0-9.585,0c0-9.526,0-18.905,0-28.633C523.94,234.817,527.148,234.817,530.354,234.817z"/>
	<path fill-rule="evenodd" clip-rule="evenodd" fill="#FFFFFF" d="M492.356,206.193c3.145,0.021,6.291,0.042,9.438,0.064
		c0,6.293,0,12.586,0,19.194c-3.213,0-6.334,0-9.455,0c-0.07-0.075-0.141-0.15-0.212-0.225c0.001-6.273,0.002-12.548,0.005-18.822
		C492.206,206.334,492.28,206.263,492.356,206.193z"/>
	<path fill-rule="evenodd" clip-rule="evenodd" fill="#FFFFFF" d="M501.722,206.33c0-3.11,0-6.22,0-9.593c3.238,0,6.416,0,9.592,0
		c0,3.109,0,6.219,0,9.593C508.075,206.33,504.898,206.33,501.722,206.33z"/>
	<path fill-rule="evenodd" clip-rule="evenodd" fill="#FFFFFF" d="M454.256,149.295c0.001,3.094,0.002,6.187,0.003,9.281
		c-0.069,0.076-0.14,0.15-0.21,0.226c-2.954,0-5.911,0-9.304,0c0,9.742,0,19.041,0,28.34c-0.071,0.074-0.143,0.148-0.215,0.222
		c-6.273-0.001-12.549-0.002-18.823-0.002c-0.074-0.072-0.146-0.144-0.221-0.215c0.014-3.149,0.026-6.297,0.041-9.446
		c3.015,0,6.031,0,9.212,0c0-3.326,0-6.129,0-9.456c-3.181,0-6.197,0-9.212,0c-0.014-6.321-0.025-12.642-0.037-18.963
		c0.069-0.075,0.139-0.15,0.209-0.225c2.946,0,5.891,0,9.132,0c0-3.313,0-6.239,0-9.384c3.391,0,6.484,0,9.885,0
		c0,2.931,0,5.854,0,9.401c3.301,0,6.312,0,9.322,0C454.112,149.147,454.185,149.221,454.256,149.295z"/>
	<path fill-rule="evenodd" clip-rule="evenodd" fill="#FFFFFF" d="M454.259,158.576c3.06,0,6.119,0,9.4,0c0,9.575,0,19.017,0,28.795
		c-3.145,0-6.273,0-9.401,0c-0.069-0.075-0.141-0.15-0.21-0.224c0-9.448,0-18.896,0.001-28.345
		C454.119,158.727,454.189,158.652,454.259,158.576z"/>
	<path fill-rule="evenodd" clip-rule="evenodd" fill="#FFFFFF" d="M473.08,206.192c0-3.058,0-6.117,0-9.398
		c6.401,0,12.671,0,19.276,0c0,3.145,0,6.271,0,9.399c-0.076,0.07-0.15,0.141-0.225,0.211c-6.275-0.001-12.551-0.001-18.824-0.002
		C473.231,206.332,473.155,206.262,473.08,206.192z"/>
	<path fill-rule="evenodd" clip-rule="evenodd" fill="#FFFFFF" d="M463.642,120.577c3.109,0,6.219,0,9.593,0
		c0,3.239,0,6.416,0,9.593c-3.108,0-6.22,0-9.593,0C463.642,126.931,463.642,123.754,463.642,120.577z"/>
	<path fill-rule="evenodd" clip-rule="evenodd" fill="#FFFFFF" d="M454.038,149.074c0-3.054,0-6.109,0-9.393c3.211,0,6.31,0,9.627,0
		c0,3.097,0,6.193,0,9.614c-3.164,0-6.287,0-9.409,0C454.185,149.221,454.112,149.147,454.038,149.074z"/>
	<path fill-rule="evenodd" clip-rule="evenodd" fill="#FFFFFF" d="M530.293,120.563c15.914,0,31.643,0,47.601,0
		c0,15.855,0,31.65,0,47.651c-15.832,0-31.626,0-47.601,0C530.293,152.375,530.293,136.646,530.293,120.563z M540.205,158.251
		c9.431,0,18.599,0,27.726,0c0-9.407,0-18.573,0-27.725c-9.364,0-18.466,0-27.726,0
		C540.205,139.814,540.205,148.914,540.205,158.251z"/>
	<path fill-rule="evenodd" clip-rule="evenodd" fill="#FFFFFF" d="M292.371,406.186c0,15.921,0,31.65,0,47.607
		c-15.863,0-31.658,0-47.656,0c0-15.84,0-31.635,0-47.607C260.561,406.186,276.29,406.186,292.371,406.186z M282.433,416.123
		c-9.459,0-18.561,0-27.781,0c0,9.352,0,18.52,0,27.731c9.378,0,18.545,0,27.781,0C282.433,434.52,282.433,425.418,282.433,416.123z
		"/>
	<path fill-rule="evenodd" clip-rule="evenodd" fill="#FFFFFF" d="M244.667,168.239c0-15.913,0-31.642,0-47.601
		c15.854,0,31.65,0,47.65,0c0,15.83,0,31.625,0,47.601C276.48,168.239,260.751,168.239,244.667,168.239z M254.608,158.298
		c9.467,0,18.568,0,27.771,0c0-9.358,0-18.524,0-27.721c-9.384,0-18.551,0-27.771,0
		C254.608,139.918,254.608,149.019,254.608,158.298z"/>
	<path fill-rule="evenodd" clip-rule="evenodd" fill="#FFFFFF" d="M549.321,234.817c3.197,0,6.396,0,9.592,0
		c0,3.136,0,6.272,0,9.583c-3.176,0-6.211,0-9.592,0C549.321,241.226,549.321,238.021,549.321,234.817z"/>
	<path fill-rule="evenodd" clip-rule="evenodd" fill="#FFFFFF" d="M549.239,263.314c0-3.054,0-6.109,0-9.394c3.21,0,6.309,0,9.627,0
		c0,3.097,0,6.194,0,9.614c-3.165,0-6.287,0-9.41,0C549.384,263.461,549.312,263.387,549.239,263.314z"/>
	<path fill-rule="evenodd" clip-rule="evenodd" fill="#FFFFFF" d="M292.2,206.192c0-3.057,0-6.114,0-9.396c3.224,0,6.323,0,9.755,0
		c0,3.146,0,6.271,0,9.397c-0.076,0.07-0.15,0.141-0.225,0.211c-3.102-0.001-6.203-0.001-9.305-0.002
		C292.351,206.332,292.276,206.262,292.2,206.192z"/>
	<path fill-rule="evenodd" clip-rule="evenodd" fill="#FFFFFF" d="M501.794,434.737c0,3.197,0,6.396,0,9.593
		c-3.109,0-6.22,0-9.592,0c0-3.238,0-6.416,0-9.593C495.397,434.737,498.597,434.737,501.794,434.737z"/>
	<path fill-rule="evenodd" clip-rule="evenodd" fill="#B8CF76" d="M425.49,149.282c0.012,6.321,0.023,12.643,0.037,18.963
		l0.105-0.069c-3.204,0-6.409,0-9.581,0c0,3.381,0,6.417,0,9.593c3.31,0,6.446,0,9.581,0l-0.105-0.069
		c-0.015,3.148-0.027,6.297-0.041,9.446c-9.447-0.002-18.894-0.003-28.342-0.004c-0.012-3.147-0.024-6.294-0.036-9.441l-0.107,0.069
		c3.205,0,6.41,0,9.583,0c0-3.381,0-6.417,0-9.593c-3.311,0-6.447,0-9.583,0l0.107,0.069c0-6.126,0-12.254,0-18.963
		C406.792,149.282,416.141,149.282,425.49,149.282z"/>
	<path fill-rule="evenodd" clip-rule="evenodd" fill="#B8CF76" d="M425.707,187.362c6.274,0,12.55,0.001,18.823,0.002
		c-0.033,5.467-0.135,10.936-0.061,16.402c0.025,1.851-0.6,2.438-2.402,2.355c-2.31-0.106-4.63,0.031-6.947,0.063l0.089,0.09
		c0-3.114,0-6.228,0-9.707c-2.365,0-4.562-0.119-6.737,0.034c-2.01,0.142-2.868-0.436-2.712-2.597
		C425.92,191.805,425.738,189.578,425.707,187.362z"/>
	<path fill-rule="evenodd" clip-rule="evenodd" fill="#B8CF76" d="M454.049,158.802c-0.001,9.448-0.001,18.896-0.001,28.345
		c-3.102-0.002-6.202-0.003-9.303-0.004c0-9.299,0-18.598,0-28.34C448.138,158.802,451.095,158.802,454.049,158.802z"/>
	<path fill-rule="evenodd" clip-rule="evenodd" fill="#B8CF76" d="M473.308,206.402c6.273,0,12.549,0.001,18.824,0.002
		c-0.003,6.274-0.004,12.548-0.005,18.822c-2.945,0-5.89,0-9.136,0c0-3.334,0-6.263,0-9.49c-3.222,0-6.147,0-9.684,0
		C473.308,212.43,473.308,209.416,473.308,206.402z"/>
	<path fill-rule="evenodd" clip-rule="evenodd" fill="#B8CF76" d="M387.627,187.362c3.101,0,6.203,0.001,9.304,0.002
		c-0.001,3.101-0.002,6.201-0.004,9.302c-2.954,0-5.909,0-9.3,0C387.627,193.272,387.627,190.317,387.627,187.362z"/>
	<path fill-rule="evenodd" clip-rule="evenodd" fill="#B8CF76" d="M435.12,206.185c0,2.971,0,5.942,0,9.167
		c-3.209,0-6.032,0-9.091,0c0-2.807,0-5.632,0-9.075c3.105,0,6.142,0,9.18-0.001C435.209,206.275,435.12,206.185,435.12,206.185z"/>
	<path fill-rule="evenodd" clip-rule="evenodd" fill="#B8CF76" d="M463.681,206.185c0,2.971,0,5.942,0,9.167
		c-3.209,0-6.033,0-9.092,0c0-2.807,0-5.632,0-9.075c3.106,0,6.143,0,9.181-0.001C463.77,206.275,463.681,206.185,463.681,206.185z"
		/>
	<path fill-rule="evenodd" clip-rule="evenodd" fill="#B8CF76" d="M444.529,234.745c-3.103,0-6.203-0.001-9.305-0.002
		c0-2.948,0-5.897,0-9.021c3.175,0,5.925,0,9.305,0C444.529,228.715,444.529,231.73,444.529,234.745z"/>
	<path fill-rule="evenodd" clip-rule="evenodd" fill="#B8CF76" d="M292.426,206.402c3.102,0,6.203,0.001,9.305,0.002
		c-0.002,3.101-0.003,6.202-0.004,9.302c-2.954,0-5.909,0-9.3,0C292.426,212.312,292.426,209.357,292.426,206.402z"/>
	<path fill-rule="evenodd" clip-rule="evenodd" fill="#B8CF76" d="M292.208,234.962c0,3.102-0.001,6.203-0.001,9.304
		c-2.949,0-5.898,0-9.021,0c0-3.175,0-5.925,0-9.304C286.179,234.962,289.194,234.962,292.208,234.962z"/>
	<path fill-rule="evenodd" clip-rule="evenodd" fill="#B8CF76" d="M311.249,320.425c-3.102-0.001-6.203-0.001-9.305-0.003
		c0.001-3.101,0.002-6.201,0.004-9.301c2.955,0,5.909,0,9.301,0C311.249,314.516,311.249,317.471,311.249,320.425z"/>
	<path fill-rule="evenodd" clip-rule="evenodd" fill="#B8CF76" d="M321.01,320.555c0.024-2.037,0.049-4.074,0.072-6.113
		c0.006-0.555,0.004-1.11,0.008-1.666c0.017-2.217,1.82-1.746,2.82-1.477c2.077,0.558,4.836-1.816,6.266,1.402
		c0.069,0.156,0.006,0.367,0.016,0.553c0.376,7.059,0.376,7.053-6.501,7.08c-0.923,0.004-1.845,0.088-2.77,0.134
		C320.92,320.469,321.01,320.555,321.01,320.555z"/>
	<path fill-rule="evenodd" clip-rule="evenodd" fill="#B8CF76" d="M311.467,329.944c0-3.101,0.001-6.202,0.001-9.304
		c3.18-0.029,6.36-0.057,9.54-0.086c0.002,0-0.088-0.086-0.087-0.087c-0.131,2.954-0.264,5.907-0.424,9.477
		C317.495,329.944,314.48,329.944,311.467,329.944z"/>
	<path fill-rule="evenodd" clip-rule="evenodd" fill="#B8CF76" d="M339.809,339.465c-3.102,0-6.203-0.002-9.304-0.002
		c0-2.949,0-5.898,0-9.021c3.175,0,5.924,0,9.304,0C339.809,333.436,339.809,336.449,339.809,339.465z"/>
	<path fill-rule="evenodd" clip-rule="evenodd" fill="#B8CF76" d="M330.289,339.682c0,2.957,0,5.913,0,9.301
		c-3.394,0-6.349,0-9.305,0c0-2.955,0-5.908,0-9.301C324.38,339.682,327.334,339.682,330.289,339.682z"/>
	<path fill-rule="evenodd" clip-rule="evenodd" fill="#B8CF76" d="M349.329,254.002c-0.001,3.101-0.001,6.203-0.002,9.304
		c-3.056,0-6.113,0-9.477,0c0,6.211,0,12.311,0,19.036c-3.312,0-6.329,0-9.345,0c0-3.059,0-6.118,0-9.495c-3.06,0-5.994,0-9.174,0
		c0-3.131,0-5.954,0-9.104c2.928,0,5.862,0,9.212,0c0-3.308,0-6.312,0-9.741C337.08,254.002,343.204,254.002,349.329,254.002z"/>
	<path fill-rule="evenodd" clip-rule="evenodd" fill="#B8CF76" d="M377.889,234.745c-3.102,0-6.204-0.001-9.305-0.002
		c0-2.955,0-5.91,0-9.297c3.396,0,6.352,0,9.306,0C377.89,228.544,377.889,231.645,377.889,234.745z"/>
	<path fill-rule="evenodd" clip-rule="evenodd" fill="#B8CF76" d="M520.689,368.025c-9.449-0.002-18.897-0.002-28.345-0.004
		c0-6.232,0-12.465,0-19.039c-3.259,0-6.39,0-9.52,0c0-3.101,0.002-6.201,0.003-9.303c6.274,0.002,12.548,0.004,18.823,0.004
		c0,3.061,0,6.121,0,9.521c3.258,0,6.389,0,9.52,0c0,3.054,0,6.108,0,9.475c3.037,0,5.964,0,9.519,0
		C520.689,361.994,520.689,365.01,520.689,368.025z"/>
	<path fill-rule="evenodd" clip-rule="evenodd" fill="#B8CF76" d="M549.354,368.242c0-2.972,0-5.941,0-9.168
		c3.209,0,6.034,0,9.092,0c0,2.808,0,5.633,0,9.076c-3.105,0-6.142,0-9.18,0C549.265,368.152,549.354,368.242,549.354,368.242z"/>
	<path fill-rule="evenodd" clip-rule="evenodd" fill="#B8CF76" d="M473.09,339.682c0,3.063,0,6.123,0,9.522c3.26,0,6.39,0,9.521,0
		c0,2.955,0,5.91,0,9.299c-6.573,0-12.699,0-18.827,0c0.002-6.274,0.003-12.549,0.004-18.823
		C466.889,339.682,469.989,339.682,473.09,339.682z"/>
	<path fill-rule="evenodd" clip-rule="evenodd" fill="#B8CF76" d="M492.129,368.242c-0.001,3.102-0.001,6.203-0.002,9.305
		c-2.948,0-5.896,0-9.021,0c0-3.176,0-5.926,0-9.305C486.1,368.242,489.114,368.242,492.129,368.242z"/>
	<path fill-rule="evenodd" clip-rule="evenodd" fill="#B8CF76" d="M454.267,330.162c3.102,0.001,6.203,0.001,9.305,0.002
		c-0.002,3.102-0.003,6.202-0.004,9.303c-2.955,0-5.91,0-9.301,0C454.267,336.072,454.267,333.117,454.267,330.162z"/>
	<path fill-rule="evenodd" clip-rule="evenodd" fill="#B8CF76" d="M444.529,358.505c-3.103-0.001-6.203-0.001-9.305-0.002
		c0.001-3.101,0.002-6.202,0.005-9.304c2.953,0,5.908,0,9.3,0C444.529,352.595,444.529,355.55,444.529,358.505z"/>
	<path fill-rule="evenodd" clip-rule="evenodd" fill="#B8CF76" d="M349.547,387.064c0-3.102,0.001-6.203,0.001-9.305
		c3.101,0.002,6.202,0.004,9.302,0.004c0,2.956,0,5.911,0,9.301C355.456,387.064,352.501,387.064,349.547,387.064z"/>
	<path fill-rule="evenodd" clip-rule="evenodd" fill="#B8CF76" d="M292.208,349.203c0,3.1-0.001,6.201-0.001,9.303
		c-3.101-0.001-6.202-0.002-9.302-0.004c0-2.954,0-5.908,0-9.299C286.299,349.203,289.254,349.203,292.208,349.203z"/>
	<path fill-rule="evenodd" clip-rule="evenodd" fill="#B8CF76" d="M529.938,397.099c0,2.899,0,5.653,0,8.888
		c-2.567,0-5.136,0.068-7.693-0.067c-0.435-0.022-1.149-0.909-1.177-1.426c-0.127-2.394-0.057-4.799-0.057-7.395
		C524.119,397.099,526.938,397.099,529.938,397.099z"/>
	<path fill-rule="evenodd" clip-rule="evenodd" fill="#B8CF76" d="M397.108,177.701c-3.162-0.026-6.323-0.053-9.484-0.079
		c0-2.943,0-5.887,0-9.377c3.432,0,6.458,0,9.484,0l-0.107-0.069c0,3.198,0,6.396,0,9.593L397.108,177.701z"/>
	<path fill-rule="evenodd" clip-rule="evenodd" fill="#B8CF76" d="M425.527,168.246c3.015,0,6.031,0,9.212,0
		c0,3.326,0,6.129,0,9.456c-3.181,0-6.197,0-9.212,0l0.105,0.069c0-3.198,0-6.396,0-9.593L425.527,168.246z"/>
	<path fill-rule="evenodd" clip-rule="evenodd" fill="#B8CF76" d="M540.205,158.251c0-9.337,0-18.438,0-27.725
		c9.26,0,18.361,0,27.726,0c0,9.152,0,18.318,0,27.725C558.804,158.251,549.636,158.251,540.205,158.251z"/>
	<path fill-rule="evenodd" clip-rule="evenodd" fill="#B8CF76" d="M282.433,416.123c0,9.295,0,18.396,0,27.731
		c-9.236,0-18.403,0-27.781,0c0-9.212,0-18.38,0-27.731C263.872,416.123,272.974,416.123,282.433,416.123z"/>
	<path fill-rule="evenodd" clip-rule="evenodd" fill="#B8CF76" d="M254.608,158.298c0-9.279,0-18.38,0-27.721
		c9.219,0,18.386,0,27.771,0c0,9.196,0,18.363,0,27.721C273.176,158.298,264.075,158.298,254.608,158.298z"/>
	<path fill-rule="evenodd" clip-rule="evenodd" fill="#FFFFFF" d="M397.001,177.77c0-3.198,0-6.396,0-9.593c3.135,0,6.271,0,9.583,0
		c0,3.177,0,6.212,0,9.593C403.411,177.77,400.206,177.77,397.001,177.77z"/>
	<path fill-rule="evenodd" clip-rule="evenodd" fill="#FFFFFF" d="M425.633,168.177c0,3.198,0,6.396,0,9.593
		c-3.135,0-6.271,0-9.581,0c0-3.177,0-6.212,0-9.593C419.224,168.177,422.429,168.177,425.633,168.177z"/>
</g>
</svg>
